<?xml version="1.0" standalone="no"?>
<!DOCTYPE svg PUBLIC "-//W3C//DTD SVG 1.1//EN" "http://www.w3.org/Graphics/SVG/1.1/DTD/svg11.dtd" >
<svg xmlns="http://www.w3.org/2000/svg" xmlns:xlink="http://www.w3.org/1999/xlink" version="1.1">
<metadata>
Created by FontForge 20161003 at Tue Aug  8 13:31:58 2017
 By www-data
Copyright (c) The Monotype Corporation plc. 1992. All Rights Reserved.
</metadata>
<defs>
<font id="MaturaMTScriptCapitals" horiz-adv-x="1003" >
  <font-face 
    font-family="Matura MT Script Capitals"
    font-weight="600"
    font-variant="small-caps"
    font-stretch="normal"
    units-per-em="2048"
    panose-1="3 2 8 2 6 6 2 7 2 2"
    ascent="1638"
    descent="-410"
    x-height="831"
    cap-height="1322"
    bbox="-405 -966 2979 1869"
    underline-thickness="102"
    underline-position="-256"
    unicode-range="U+0020-F002"
  />
<missing-glyph horiz-adv-x="1536" 
d="M256 0v1280h1024v-1280h-1024zM288 32h960v1216h-960v-1216z" />
    <glyph glyph-name=".notdef" horiz-adv-x="1536" 
d="M256 0v1280h1024v-1280h-1024zM288 32h960v1216h-960v-1216z" />
    <glyph glyph-name="glyph1" horiz-adv-x="0" 
 />
    <glyph glyph-name="glyph2" horiz-adv-x="672" 
 />
    <glyph glyph-name="space" unicode=" " horiz-adv-x="672" 
 />
    <glyph glyph-name="exclam" unicode="!" horiz-adv-x="576" 
d="M109 341q93 -4 152.5 -11t92.5 -15q61 -16 61 -94q0 -76 -53 -150q-52 -75 -107 -75q-81 0 -234 66q73 171 88 279zM189 1300q198 -9 282 -38q83 -29 83 -114q0 -207 -165 -581q-134 -80 -286 -127q90 440 90 744q0 56 -4 116z" />
    <glyph glyph-name="quotedbl" unicode="&#x22;" horiz-adv-x="981" 
d="M823 799h-207l-53 273v248h306v-248zM372 799h-207l-53 273v248h306v-248z" />
    <glyph glyph-name="numbersign" unicode="#" horiz-adv-x="1365" 
d="M878 819h-329l-57 -275h329zM73 819v216h302l82 374h216l-83 -374h329l80 374h216l-81 -374h159v-216h-200l-57 -276h257v-215h-298l-82 -371h-216l83 371h-333l-78 -371h-216l78 371h-158v215h204l56 276h-260z" />
    <glyph glyph-name="dollar" unicode="$" horiz-adv-x="1067" 
d="M610 393l-29 -230q107 -20 188 -27q4 55 4 93q0 152 -163 164zM524 744v221q-69 24 -172 26q0 -202 172 -247zM739 1304l-7 -123q87 -42 196 -125q-37 -157 -69 -252q-116 91 -163 113l-18 -186q60 -6 72 -7q67 -4 127 -37q58 -33 100 -97t42 -142q0 -151 -70 -285
q-70 -135 -151 -182q-82 -46 -131 -46l-52 1q-53 0 -59 2l-18 -149q-14 -6 -43 -24t-45 -25l6 213q-97 24 -157 47q0 -43 -5 -98q-140 -71 -199 -89l-59 429q110 57 263 108q89 -132 167 -144l6 193q-19 0 -45 -2q-28 -2 -32 -2q-62 0 -149 41q-88 41 -122 123
q-36 83 -36 179q0 135 67 256q65 119 155 169q88 49 212 61q57 6 95 20t122 60z" />
    <glyph glyph-name="percent" unicode="%" horiz-adv-x="1685" 
d="M1204 465q-41 -65 -41 -149q0 -167 201 -212q80 85 80 173q0 185 -240 188zM1452 -14l-24 -21q-64 -3 -107 -3q-407 0 -407 330q0 104 48 173q46 68 130 120q83 50 208 50q110 0 197 -42q86 -42 125 -99t39 -144q0 -182 -209 -364zM311 1074q-41 -61 -41 -149
q0 -167 201 -212q80 88 80 173q0 185 -240 188zM535 574q-69 -3 -108 -3q-406 0 -406 330q0 152 113 248q113 95 273 95q161 0 261 -79t100 -206q0 -187 -233 -385zM396 -98l714 1320l156 30q-20 -63 -81 -176q-57 -105 -80 -142l-608 -948q-97 -77 -101 -84z" />
    <glyph glyph-name="ampersand" unicode="&#x26;" horiz-adv-x="2773" 
d="M797 677l258 -130q66 84 66 186q0 123 -99 211q-100 88 -327 94q-94 -85 -94 -164q0 -47 37 -90q37 -46 159 -107zM1844 -234l-379 -311q120 238 120 372q0 80 -77 140q-77 61 -218 137q-3 -3 -73 -55q-106 -77 -133 -104q-29 -31 -103 -109q-98 -104 -148 -143
q-53 -41 -145 -76q-90 -34 -185 -34q-168 0 -311 104t-143 278q0 131 105 263l373 133q-190 -181 -190 -327q0 -90 74 -149q74 -60 192 -60q144 0 298 87q155 85 324 228q-104 51 -241 124q-150 77 -343 146q-164 60 -219 125q-54 65 -54 156q0 199 200 343t444 144
q156 0 257 -88q101 -89 101 -208q0 -80 -56 -169q-55 -88 -215 -189l427 -223q132 94 262 167t247.5 121.5t226 73t204.5 24.5q125 0 207 -52q83 -53 83 -142q0 -104 -135 -191q-117 2 -210 18q83 116 136 231l-90 4q-123 0 -284 -37q-164 -37 -286 -87q-121 -49 -318 -153
q172 -96 239 -183q67 -86 67 -187q0 -62 -31 -142z" />
    <glyph glyph-name="quotesingle" unicode="'" horiz-adv-x="491" 
d="M352 799h-207l-53 273v248h306v-248z" />
    <glyph glyph-name="parenleft" unicode="(" horiz-adv-x="619" 
d="M308 -127l-52 -85q-66 133 -122 362q-20 80 -32.5 153.5t-19 153t-6.5 155.5q0 472 264 821l247 23q-164 -132 -276 -373q-112 -240 -112 -559q0 -294 109 -651z" />
    <glyph glyph-name="parenright" unicode=")" horiz-adv-x="619" 
d="M311 1371l51 85q64 -126 123 -359q58 -231 58 -465q0 -471 -264 -821l-247 -23q83 66 151 159t124 214q112 240 112 559q0 287 -108 651z" />
    <glyph glyph-name="asterisk" unicode="*" horiz-adv-x="747" 
d="M308 1055l21 252l114 6l-45 -271l189 191l54 -46l-184 -187l241 6l-31 -65l-240 -17l206 -227l-57 -62l-215 225l-23 -228l-64 -5l18 216l-163 -156l-39 39l184 187l-229 -16l24 93l166 4l-177 184l71 71z" />
    <glyph glyph-name="plus" unicode="+" horiz-adv-x="1365" 
d="M120 461v248h438v439h248v-439h439v-248h-439v-437h-248v437h-438z" />
    <glyph glyph-name="comma" unicode="," horiz-adv-x="512" 
d="M62 -136l244 472l148 17l-303 -472z" />
    <glyph glyph-name="hyphen" unicode="-" horiz-adv-x="725" 
d="M31 410v84l660 9v-115z" />
    <glyph glyph-name="period" unicode="." horiz-adv-x="512" 
d="M167 355q174 -21 228 -44q51 -24 51 -90q0 -78 -50 -149q-51 -72 -113 -72q-82 0 -219 46q68 141 103 309z" />
    <glyph glyph-name="slash" unicode="/" horiz-adv-x="512" 
d="M183 -40h-188l330 1324h192z" />
    <glyph glyph-name="zero" unicode="0" horiz-adv-x="1344" 
d="M519 949q-80 -134 -80 -330q0 -368 366 -460q148 184 148 380q0 146 -58 238q-59 94 -145 131q-90 38 -231 41zM901 -72q-120 -5 -174 -5q-349 0 -511 169q-162 168 -162 479q0 297 186 486q186 188 450 188q177 0 313 -76q135 -76 208 -185q72 -108 72 -296
q0 -371 -382 -760z" />
    <glyph glyph-name="one" unicode="1" horiz-adv-x="747" 
d="M38 554l16 273q227 119 387 212q102 59 207 112v-27q0 -18 -17 -180q-9 -83 -21 -278l-14 -229q-19 -315 -34 -388q-15 -67 -64 -100q-49 -34 -292 -81q31 72 36 212l8 264q5 178 5 286q0 32 -1 66l-127 -85q-67 -45 -89 -57z" />
    <glyph glyph-name="two" unicode="2" horiz-adv-x="939" 
d="M49 779l262 351q56 8 95 8q168 0 287 -110t119 -260q0 -288 -348 -560q137 -41 434 -45l-33 -81q-52 -132 -113 -176q-62 -44 -133 -44q-52 0 -189 30q-245 54 -397 66q92 108 125 141q81 84 136 150.5t81 109.5q60 98 60 209q0 108 -63 172q-63 63 -177 63
q-69 0 -146 -24z" />
    <glyph glyph-name="three" unicode="3" horiz-adv-x="875" 
d="M150 1121q114 12 269 12q86 0 152 -3q103 -4 132 -4q45 1 133 3l-346 -593q186 -20 268 -43q36 -76 36 -202q0 -246 -127 -373q-128 -128 -308 -128q-145 0 -316 42v6q227 23 303 97q76 73 76 186q0 189 -253 190q20 37 59 85q142 171 240 403q-68 4 -150 4
q-56 0 -113 -3q-82 -3 -102 -3q-7 0 -49 2q75 226 96 322z" />
    <glyph glyph-name="four" unicode="4" horiz-adv-x="1237" 
d="M644 775l5 34q-76 -106 -153 -189q-70 -76 -188 -211q288 5 304 7q-1 15 -1 33q0 73 33 326zM711 1186q68 10 190 31l119 20q2 -62 2 -86q0 -63 -11 -219l-20 -285q-12 -142 -18 -218l226 11q-70 -169 -100 -200q-27 -28 -42 -49q-12 -18 -107 -33q-2 -112 -19 -212
q-218 -74 -404 -110l49 134q17 44 21 171h-45l-157 -1l-52 1l-321 -6q13 31 293 449l228 342q26 38 168 260z" />
    <glyph glyph-name="five" unicode="5" 
d="M130 647l100 501q120 8 241 8l237 -1q187 0 274 41q-39 -88 -108 -193q-71 -108 -107 -134q-38 -27 -114 -40q-82 -14 -195 -14l-90 1q-10 0 -36 -2q-8 0 -16 -0.5t-11 -1.5l-53 -130l122 1q193 0 327 -13q101 -106 101 -258q0 -237 -165 -437q-167 -201 -546 -238v7
q92 46 158.5 100.5t104.5 114.5q79 121 79 242q0 66 -33 105q-35 38 -110 60q-77 23 -217 27q40 166 57 254z" />
    <glyph glyph-name="six" unicode="6" horiz-adv-x="1067" 
d="M430 516q22 -328 212 -391q30 75 30 147q0 217 -242 244zM370 1158q208 44 349 44q19 0 32 -1v-7q-214 -87 -301 -537q101 62 220 62q155 0 248 -84q93 -85 93 -238q0 -87 -38 -180q-39 -92 -202 -243q-58 -54 -78 -90l-74 -2q-281 0 -419 154q-138 153 -138 411
q0 151 44 295q43 141 99 224q56 81 165 192z" />
    <glyph glyph-name="seven" unicode="7" horiz-adv-x="1024" 
d="M200 1174q-9 0 47 -2h31l110 2l450 7q102 1 234 13q-26 -55 -71 -140q-21 -39 -28 -53l-225 -438l-47 -94l-84 -161l-35 -66l-28 -51q-51 -59 -112.5 -124t-170.5 -172q-89 -62 -220 -92v7q158 159 249 266.5t131 177.5q27 51 48 90t58 112t74 149.5t137 281.5
q-128 -80 -531 -80q-96 0 -166 -5q65 137 101 228.5t48 143.5z" />
    <glyph glyph-name="eight" unicode="8" horiz-adv-x="960" 
d="M347 511q-43 -86 -43 -152q0 -162 174 -236q45 95 45 149q0 150 -176 239zM407 1068q-7 -63 -7 -104q0 -131 167 -208q38 74 38 127q0 133 -198 185zM478 1327q45 -17 94 -28q213 -45 272 -112q60 -67 60 -179q0 -124 -64 -209q-65 -86 -155 -108q218 -107 218 -298
q0 -72 -33 -146q-34 -75 -93 -139q-61 -66 -96 -87q-37 -23 -178 -75q-57 -24 -64 -29q-113 30 -190.5 64t-127.5 76q-96 81 -96 212q0 100 53 176q53 75 125 107q23 10 45 23q-104 74 -138 143q-35 70 -35 146q0 98 45 182q46 85 118 139q76 58 240 142z" />
    <glyph glyph-name="nine" unicode="9" 
d="M455 991q-63 -118 -63 -226q0 -184 162 -321q35 119 35 203q0 216 -134 344zM728 1214q147 -124 183 -236q35 -114 35 -239q0 -182 -55 -329q-55 -149 -137 -249q-83 -102 -277 -263l-337 -77q242 237 363 483q-151 0 -306 102q-154 102 -154 338q0 219 148 346
q149 126 451 126q10 0 86 -2z" />
    <glyph glyph-name="colon" unicode=":" horiz-adv-x="512" 
d="M132 394q131 0 209 -31q79 -31 79 -84q0 -62 -53 -142t-90 -80q-51 0 -172 40q-4 2 -27.5 8.5t-43.5 11.5q63 133 98 277zM218 854q199 -23 230 -48q32 -27 32 -67q0 -67 -45 -138q-45 -72 -90 -72q-63 0 -168 32q-35 10 -64 18q80 167 105 275z" />
    <glyph glyph-name="semicolon" unicode=";" horiz-adv-x="512" 
d="M49 -135l244 471l148 17l-304 -473zM175 833q218 -26 252 -50q36 -25 36 -70q0 -82 -45 -151q-45 -70 -121 -70q-60 0 -209 47q54 146 87 294z" />
    <glyph glyph-name="less" unicode="&#x3c;" horiz-adv-x="1365" 
d="M1244 276v-268l-1123 465v225l1123 467v-267l-784 -312z" />
    <glyph glyph-name="equal" unicode="=" horiz-adv-x="1365" 
d="M121 221v248h1123v-248h-1123zM121 703v248h1123v-248h-1123z" />
    <glyph glyph-name="greater" unicode="&#x3e;" horiz-adv-x="1365" 
d="M121 897v268l1123 -465v-225l-1123 -467v267l784 312z" />
    <glyph glyph-name="question" unicode="?" horiz-adv-x="896" 
d="M247 353l123 -27q45 -6 96 -17q44 -11 51 -16q8 -6 15 -36q8 -32 8 -51q0 -53 -40 -132t-108 -79q-84 0 -264 58q79 121 119 300zM17 1011l200 271q376 -19 519 -128q141 -108 141 -299q0 -14 -1 -26q-80 -128 -289 -234q-210 -108 -421 -108q-11 0 -79 2v5
q368 188 368 344q0 46 -36 92q-37 45 -168 65q-127 19 -188 19q-13 0 -46 -3z" />
    <glyph glyph-name="at" unicode="@" horiz-adv-x="2005" 
d="M696 258q0 -116 47 -181t132 -65q142 0 227 159q85 157 85 327q0 96 -46 166q-46 69 -139 69q-138 0 -222 -150q-84 -151 -84 -325zM1777 -153h213q-102 -214 -332 -331q-230 -118 -547 -118q-517 0 -783 251q-267 250 -267 661q0 289 138 533q136 243 368 360
q230 117 519 117q388 0 620 -216q231 -217 231 -548q0 -289 -191 -509q-190 -219 -470 -219q-152 0 -182 115q-118 -115 -270 -115q-176 0 -281 120q-106 118 -106 299q0 250 153 458q152 207 388 207q179 0 264 -135l25 110h264l-151 -716q-14 -72 -14 -89q0 -49 39 -49
q49 0 134 66q86 65 152 191t66 270q0 241 -176 409q-176 167 -500 167q-257 0 -448 -104q-191 -105 -290 -309q-100 -204 -100 -423q0 -321 219 -519q218 -199 627 -199q483 0 688 265z" />
    <glyph glyph-name="A" unicode="A" horiz-adv-x="2731" 
d="M528 193q-78 -111 -78 -221q0 -115 77 -168t183 -53q81 0 222 21q5 9 117 128q102 108 309 346q-494 -17 -830 -53zM1670 429q77 -9 217 -34.5t304 -59.5q-39 318 -124 677q-110 -199 -397 -583zM1368 1073q10 23 26 48q30 54 50 92q339 107 634 107q94 0 179 -20
q81 -19 132 -67q50 -46 78 -138q29 -92 45 -223l23 -180l67 -465q40 -285 84 -442q-318 -93 -451 -156q0 113 -32 614q-187 12 -254 12q-72 -3 -189.5 -9.5t-219.5 -12.5q-380 -419 -613 -555q-235 -137 -441 -137q-200 0 -328 100q-129 99 -129 207q0 122 135 272
q133 148 353 261q219 111 521 111q72 0 137.5 -4t148 -13t167.5 -21l201 291q59 86 236 393q-118 -3 -261.5 -20t-298.5 -45z" />
    <glyph glyph-name="B" unicode="B" horiz-adv-x="2240" 
d="M1266 941l-123 -664q102 60 318 202q66 44 168.5 109t169.5 104q122 71 192 121q-54 63 -100 90q-43 26 -132 45q-86 19 -202 19q-133 0 -291 -26zM528 832l203 330q461 160 850 160q208 0 357 -52q149 -53 220 -113q71 -62 71 -127q0 -130 -188 -321
q-64 -64 -144.5 -124.5t-177 -118t-218.5 -116.5q71 7 112 7q109 0 234 -32q123 -32 203 -72q82 -41 111 -86q30 -46 30 -122q0 -151 -87 -293t-215 -216t-248 -74q-152 0 -397 84l-40 153l162 297q31 -118 170 -189q137 -71 268 -71q51 0 141 12q-51 190 -225 282
q-174 90 -364 90q-94 0 -246 -15q-37 -198 -258 -374q-220 -175 -401 -175q-214 0 -426 441q50 323 86 423q173 -262 357 -393q185 -131 325 -131q69 0 112 34q43 33 57 80q12 47 54 358l73 564q-208 -15 -561 -100z" />
    <glyph glyph-name="C" unicode="C" horiz-adv-x="1813" 
d="M1602 1300l60 -221q-22 -187 -117 -513q-74 174 -155 319q-198 80 -389 80q-312 0 -487 -184q-176 -185 -176 -433q0 -136 74 -234q73 -97 280 -180q208 -83 520 -125q104 -15 213 -24t239 -14t243 -5l-176 -231q-390 -73 -736 -73q-457 0 -668 175q-213 174 -213 452
q0 308 177 606q175 298 480 463t611 165q102 0 220 -23z" />
    <glyph glyph-name="D" unicode="D" horiz-adv-x="2581" 
d="M912 -88q276 -89 487 -89q209 0 425 66q217 66 309 181q93 116 93 218q0 110 -117 282q-118 173 -351 288q-49 -91 -134 -210.5t-192 -248.5q-106 -130 -237 -253.5t-283 -233.5zM679 360l-79 -10q130 333 221 506q42 54 93 108.5t125 123.5q163 152 218 215
q158 21 243 21q306 0 667 -215q359 -216 359 -513q0 -412 -479 -732q-480 -321 -1073 -321q-256 0 -445 60q-190 58 -300 155q-110 95 -205 256q188 153 253 197q259 -169 443 -169q86 0 173 41q86 41 231 192q136 142 566 610q-211 106 -415 106q-56 0 -158 -9
q-30 -33 -438 -622z" />
    <glyph glyph-name="E" unicode="E" horiz-adv-x="1536" 
d="M834 1320q124 -5 226.5 -36.5t179.5 -88.5q159 -115 159 -261q0 -24 -18 -119l-23 -135q-334 338 -643 353q-40 -76 -40 -175q0 -167 104 -280t291 -125q-16 -42 -82 -152q-21 -35 -41 -72q-48 -20 -59 -20q-67 0 -187 41q-118 40 -189 97q-127 -163 -127 -290
q0 -285 639 -285q112 0 217 38q99 36 306 172q-36 -102 -59.5 -163.5t-53 -130.5t-52.5 -116q-211 -126 -560 -126q-346 0 -558 116q-213 115 -213 321q0 155 113 295q111 138 310 247q-24 72 -24 137q0 215 107 431q106 212 277 327z" />
    <glyph glyph-name="F" unicode="F" horiz-adv-x="2453" 
d="M2442 1220q53 -227 57 -389q-189 91 -292 119q-49 14 -105 22.5t-109 8.5q-67 -360 -138 -571q358 -7 583 -54l-246 -166l-116 6q-62 0 -311 -31q-102 -241 -385 -481q-283 -241 -569 -241q-198 0 -420 103q-226 102 -357 292q90 193 121 291q86 -67 188 -120.5
t228 -97.5q240 -82 422 -82q129 0 287 47q155 46 228 107q71 59 129 168q-248 -22 -488 -22l262 272q178 11 299 11q57 242 97 587q148 179 387 322q146 -14 248 -101z" />
    <glyph glyph-name="G" unicode="G" horiz-adv-x="1600" 
d="M1250 265l39 206q204 85 289 113q-28 -130 -120 -423q-29 -94 -57.5 -176t-48 -131t-34.5 -75q-50 -90 -129 -170t-165 -124t-195 -44h-45l76 218q142 34 289 84q30 123 76 377q-160 -133 -264 -207.5t-175 -107.5q-138 -62 -248 -62q-120 0 -240 69q-119 67 -184 193
q-64 124 -64 264q0 77 14 156.5t43.5 158t72.5 153.5q132 228 345 406q215 179 414 179q229 0 489 -239q-6 -49 -61 -331q-433 282 -703 338q-254 -284 -254 -609q0 -158 106 -246t252 -88q203 0 482 118z" />
    <glyph glyph-name="H" unicode="H" horiz-adv-x="1621" 
d="M1369 1263l45 -391q-266 136 -503 136q-152 0 -219 -100q-70 -102 -122 -342q317 144 570 144q133 0 248 -47q114 -46 161 -139q47 -94 47 -180q0 -113 -42 -247t-165 -387l-270 -245q-123 2 -247 42q-125 40 -304 144l6 288l14 5q353 -227 600 -227q23 0 69 3
q56 144 56 264q0 175 -120 293q-121 118 -371 118q-142 0 -302 -46q-51 -196 -150 -417q-75 -23 -110 -23q-73 0 -198 48l-39 128q157 210 232 273q76 64 184 136q40 316 108 499q68 182 166 255q97 73 268 73q205 0 388 -58z" />
    <glyph glyph-name="I" unicode="I" horiz-adv-x="1707" 
d="M1757 1266l63 -21q-60 -115 -168 -426q-142 -403 -255 -672q-114 -269 -205 -397q-94 -133 -248 -272q-103 24 -173.5 43.5t-146.5 46t-135 55.5t-103 57q-187 121 -354 455l193 293q119 -184 225 -276q58 -49 138.5 -92.5t192.5 -88.5q225 -91 392 -110q181 483 273 859
q62 250 94 311q33 63 83 125q51 63 134 110zM1006 1029q236 293 299 293q40 0 94 -90q53 -89 67 -244q-105 -101 -226 -196q-123 185 -234 237z" />
    <glyph glyph-name="J" unicode="J" horiz-adv-x="2368" 
d="M1902 216l15 48q-300 -31 -668 -82q-234 -33 -498 -62q-204 -21 -317 -42q-114 -21 -157 -47q-42 -27 -70 -76q147 -74 316 -96q170 -24 337 -24q78 0 170.5 5t178.5 16t134 20q216 40 330 104q109 60 157 107q47 44 72 129zM2084 393l256 19l-113 -109l-182 -23
q-159 -445 -443 -642q-286 -197 -742 -197q-297 0 -446 54q-147 52 -261 169q-113 116 -113 231q0 97 60 181q60 82 179 144q117 61 279 88q81 14 223 21.5t321 10.5l276 6q104 2 231 12l346 26q70 215 119.5 406.5t83.5 373.5q16 11 73 65q83 77 107 77q17 0 40 -20
q-38 -317 -294 -893zM1841 1325q111 -18 170 -71q16 -112 49 -215q-40 -85 -110 -153q-182 176 -336 185q150 182 227 254z" />
    <glyph glyph-name="K" unicode="K" horiz-adv-x="2432" 
d="M812 852l-56 73q266 193 439 289t222 96q81 0 138 -96q56 -98 56 -218q0 -262 -248 -680q95 33 211.5 133.5t248 264.5t291.5 408q68 33 183 105l137 80q33 19 56 20q-56 -135 -170 -320q-113 -184 -220 -303q-104 -116 -295 -256q-197 -144 -495 -316q430 -273 742 -393
q-11 86 -46 232q77 71 159 136.5t167 129.5q63 -219 63 -389q-366 -378 -617 -378q-296 0 -682 375q-238 -220 -421 -298q-183 -79 -362 -79q-171 0 -296 81q-126 80 -151 141q-28 61 -62 128q-64 129 -76 156q80 90 212 218q156 -253 334 -343q179 -90 378 -90
q139 0 262 50q12 19 73 147l-276 265q36 54 145 196q128 -117 293 -132q20 84 33 163t19.5 149t6.5 142q0 132 -51 267q-204 -78 -345 -154z" />
    <glyph glyph-name="L" unicode="L" horiz-adv-x="2389" 
d="M1269 -145q164 279 477 1302q33 21 76 53q92 71 114 71q12 0 22 -21q10 -20 10 -44q0 -38 -65 -185q-46 -101 -180 -428q-51 -124 -110.5 -262.5t-84.5 -188.5q-64 -135 -167 -304q186 -80 527 -80q14 0 102 2q29 95 61 341l274 135q22 -119 37 -277q-292 -471 -898 -471
q-201 0 -381 56q-249 -101 -419 -101q-219 0 -424 148t-205 306q0 42 11 106l292 245q223 -361 931 -403zM1969 1051l214 271h7q156 -91 156 -198q0 -54 -21 -170q-139 -157 -148 -173q-64 192 -105 233q-40 40 -77 40q-9 0 -26 -3z" />
    <glyph glyph-name="M" unicode="M" horiz-adv-x="3008" 
d="M983 -1l-352 -63q83 376 83 621q0 178 -84 332q-83 153 -239 188q-181 -238 -181 -606q0 -22 9 -28q8 -7 60 -16q51 -9 134 -12q-147 -153 -193 -186l-44 -1q-156 0 -156 159q0 127 56 286q57 159 164 337q108 182 261 309q80 -9 151 -32.5t134.5 -62t115.5 -87.5
q161 -155 180 -407q112 175 214.5 289t198.5 171q97 59 204.5 92.5t225.5 41.5q44 -103 76.5 -226.5t50.5 -258.5q106 132 310 236q203 104 407 144q188 -405 188 -747q0 -181 -48 -352q-47 -168 -131 -387q-384 -261 -714 -261q-195 0 -446 117l-27 168q201 -78 444 -78
q318 0 660 120q-18 569 -220 1194q-189 -101 -316 -348q-129 -247 -151 -647q-79 -6 -378 -60q25 275 25 523q0 353 -72 636q-358 -295 -600 -1098z" />
    <glyph glyph-name="N" unicode="N" horiz-adv-x="2859" 
d="M2499 1123l366 200l62 -63l-65 -335l-193 -235q-18 66 -50 160.5t-58 158.5q-33 -105 -65.5 -229t-62 -264.5t-46.5 -255t-34 -262.5l-433 -343l-182 1217l-300 -615q-84 -171 -150 -285.5t-125 -192.5q-60 -78 -121 -132.5t-127 -87.5q-132 -66 -266 -66q-104 0 -236 40
q-133 38 -219 86q-83 45 -101 68q-18 21 -31 91l-80 379l292 204q29 -122 64.5 -218t77 -169.5t93.5 -130.5q149 -162 291 -162q103 0 202 87q98 87 198 306q91 198 248 590q147 371 147 475q0 8 -1 15l389 173l203 -252q9 -427 31 -687l120 348q47 131 162 387z" />
    <glyph glyph-name="O" unicode="O" horiz-adv-x="2368" 
d="M1430 1205l-65 -107q-322 -38 -553 -137q-235 -100 -312 -216q-78 -115 -78 -285q0 -326 242 -527t583 -201q336 0 514 237q179 238 179 439q0 45 -22 142q-257 116 -315 512q319 241 478 259q124 -101 192 -272q69 -172 69 -323q0 -329 -251 -637q-249 -306 -592 -475
q-339 -169 -626 -169q-328 0 -579 196q-252 195 -252 550q0 231 87 400q85 168 274 306q95 69 208 124t244 97q264 84 575 87z" />
    <glyph glyph-name="P" unicode="P" horiz-adv-x="1856" 
d="M985 1317l-220 -746q200 337 435 524t380 228q12 4 22 6q53 -17 134 -70q107 -187 107 -377q0 -287 -91 -494q-91 -208 -457 -542l-41 -2q-112 0 -209 94q-47 45 -59 52q-10 6 -56 22q-32 12 -50 19l199 302q185 -34 374 -80q2 82 2 87q0 410 -173 676
q-598 -853 -761 -1398l-462 -178q7 63 19 118.5t39.5 157t58 199.5t82.5 253q179 523 299 755l-436 -144l66 222q215 96 378 164t260.5 103.5t159.5 48.5z" />
    <glyph glyph-name="Q" unicode="Q" horiz-adv-x="2197" 
d="M510 857l-173 57q713 407 1220 407q332 0 474 -151q143 -152 143 -341q0 -200 -117 -433q-118 -235 -289 -391q88 -78 211 -236l-151 -252q-148 106 -357 225q-221 -128 -476 -192q-258 -65 -387 -65q-116 0 -268 67q-153 66 -223 185q-70 118 -70 248q0 308 274 585
t720 400l-32 -134q-246 -91 -437 -243t-266 -315q221 -501 685 -501q128 0 302 52q-273 115 -477 142q106 103 202.5 185.5t161.5 126.5q133 -2 245 -50q116 -51 234 -137q71 195 71 395q0 299 -134 451t-362 152q-322 0 -724 -237z" />
    <glyph glyph-name="R" unicode="R" horiz-adv-x="1984" 
d="M1422 935q-169 -172 -508 -613q321 35 683 437q-50 114 -175 176zM262 689l164 286q252 192 517 270q266 77 458 77q153 0 295 -66q144 -67 214 -169q70 -103 70 -188q0 -96 -77 -230q-79 -136 -319 -266q-243 -133 -604 -188q303 -180 469 -388q-20 -70 -139 -383
q-75 69 -160 142.5t-175 148t-308 251.5q-241 -342 -380 -342q-78 0 -171 101q-26 29 -65 57q21 44 70 132q39 71 62 119l273 -141q81 94 209 268q116 158 251 366l276 430l-75 2q-95 0 -197 -19t-213 -55q-225 -74 -445 -215z" />
    <glyph glyph-name="S" unicode="S" horiz-adv-x="1813" 
d="M1320 1321h160q169 -121 169 -356q0 -77 -27 -151q-148 152 -246 182q-100 30 -171 30q-50 0 -62 -5q-11 -6 -15 -43q-6 -37 -6 -67q0 -44 19 -110q18 -69 67 -88q45 -20 112 -40q65 -20 202 -36q89 -10 122 -22q27 -10 57 -45q30 -36 86 -135q-151 -570 -915 -866
l-103 -6q-157 0 -321 111q-166 111 -418 387l12 184q360 -116 809 -377q110 -65 127 -65q111 0 266 98q153 97 153 237q0 62 -41 91q-40 26 -162 46q-193 30 -286 139q-93 108 -93 227q0 143 142 387q140 243 363 293z" />
    <glyph glyph-name="T" unicode="T" horiz-adv-x="1835" 
d="M2035 1270q-108 -183 -254 -359q-116 -34 -241 -56q-196 -231 -499 -649q-44 -61 -122.5 -165.5t-128 -168.5t-98.5 -122q-65 -78 -111 -123t-79 -67q-70 -44 -132 -44q-58 0 -90 19q-34 18 -72 68q-26 33 -65 55q97 187 132 283q113 -100 289 -148l180 245
q85 116 177 253q98 144 177 270l187 297q-204 40 -390 60t-339 20q-259 0 -552 -72q174 250 283 442q67 7 141.5 10.5t157.5 3.5q220 0 455 -39l213 -36q52 -9 142 -14q88 -5 162 -5q183 0 477 42z" />
    <glyph glyph-name="U" unicode="U" horiz-adv-x="2304" 
d="M1689 955l345 211l296 68q-219 -963 -219 -1440q0 -42 1 -75q-137 -101 -454 -250q5 328 144 1002q-191 -408 -581 -704q-390 -297 -771 -297q-116 0 -209 28q-94 28 -150 66t-75 74q-20 38 -20 98q0 148 104 294q34 48 111.5 135t206 220.5t267.5 270.5q168 167 223 261
q20 36 30 47q8 11 8 16q0 10 -30 19q-34 8 -68 8q-132 0 -711 -240l87 198q130 79 228.5 134t187 98.5t140.5 62.5q174 64 316 64q301 0 301 -120q0 -90 -140 -257q-44 -53 -111.5 -118.5t-160 -146t-213.5 -177.5q-75 -59 -130 -105t-64 -55q-41 -38 -158 -161
q-116 -122 -124 -136t-8 -23q0 -45 127 -139q66 -48 153.5 -71t197.5 -23q390 0 642 318q251 319 281 845z" />
    <glyph glyph-name="V" unicode="V" horiz-adv-x="2517" 
d="M2234 1322q202 -58 251 -68q38 -129 38 -255q0 -155 -57 -292q-58 -46 -119.5 -106.5t-138.5 -149t-151 -184.5q-241 -311 -426 -630l-304 -153l-28 464q-13 213 -47 362q-33 142 -86 243q-51 95 -148 204q-343 180 -752 180q-101 0 -214 -18q143 201 193 298
q207 103 427 103q206 0 416 -85q101 -40 231 -117.5t278 -187.5q4 -64 4 -94q0 -61 -21.5 -352t-49.5 -621q352 490 631 693l-9 299l-198 -26q21 48 83.5 158.5t196.5 334.5z" />
    <glyph glyph-name="W" unicode="W" horiz-adv-x="2901" 
d="M2408 1l-145 -111q150 359 335 727q69 138 69 228q0 67 -33 115t-150 48q-43 -119 -52 -157q-11 -49 -26 -161q-19 -144 -36 -216q-18 -73 -75 -212q-65 -156 -221 -480l-465 -275l-153 404l10 611q-93 -93 -358 -440q-132 -173 -223.5 -302.5t-140.5 -215.5l-329 -55
q4 268 32 527q22 204 22 304q0 159 -40 392q-77 55 -186.5 103.5t-235.5 84.5q12 18 119 169.5t162 228.5q208 -46 343 -133q39 -25 86.5 -67t93.5 -95.5t88 -112.5l-132 -531q-44 -177 -121 -598l342 395l210 238q30 33 72.5 84.5t90.5 110t81 99.5t79 98l316 123
l130 -1015q26 66 120 374q40 128 57 178t63 180q62 170 112 274q45 96 109 199q59 93 111 141q53 48 68 55t66 7q118 0 200 -61t82 -163q0 -98 -46 -199q-46 -103 -193 -338q-69 -109 -125 -202.5t-72 -121.5q-52 -93 -111 -236z" />
    <glyph glyph-name="X" unicode="X" horiz-adv-x="2773" 
d="M2760 1268l88 -262l-105 -232q-126 197 -300 288q-159 -216 -268 -408l-236 -407q158 -232 291 -315q133 -82 269 -82q32 0 102 5q-250 -202 -528 -202q-253 0 -414 233q-515 -419 -913 -419q-146 0 -299 53q-80 29 -158.5 74t-165.5 111q-49 196 -88 317q70 104 176 278
q241 -322 439 -409t382 -87q146 0 254 43q113 45 287 157l-164 242q-48 68 -92 178q-48 116 -92 272q-50 171 -95 395q124 90 376 236q5 -82 29.5 -179.5t75.5 -228.5t115.5 -263t156.5 -294q109 226 199.5 390.5t161.5 261.5q143 199 299 312h34q11 0 33 -2q15 -1 33 -6
q6 -1 11.5 -2.5t11.5 -3t11 -3.5q12 -4 35 -15q8 -4 48 -26z" />
    <glyph glyph-name="Y" unicode="Y" horiz-adv-x="2304" 
d="M1411 -177l-134 -213q-358 -165 -591 -165q-122 0 -209 37q-89 38 -89 108q0 48 27 95q23 42 91 118q75 84 138.5 159.5t115.5 142.5q-87 690 -192 978q-113 -21 -254 -78t-297 -146l26 123q86 57 210.5 131.5t208.5 117.5q181 94 328 94q133 0 235 -50q56 -127 93 -315
q36 -187 36 -231q0 -20 -29 -168l-66 -324q168 123 262 201q101 83 135 117q30 29 200 217q117 129 205 202q94 76 233 161q171 107 282 189l115 -96q-179 -143 -318.5 -267t-242.5 -230q-213 -217 -433 -375q-222 -158 -376 -232q-160 -77 -233 -132q-74 -55 -172 -177
q54 -15 265 -15q113 0 430 23z" />
    <glyph glyph-name="Z" unicode="Z" horiz-adv-x="2752" 
d="M2257 -9l12 -3l-271 -449q-21 -6 -102 -37q-115 -43 -215 -63q-103 -20 -250 -20q-161 0 -305 26q-140 25 -410 102q-207 58 -318 77q-108 18 -306 26l146 245l869 278l913 290q-202 39 -382 85t-365 107.5t-352 130t-363 163.5q-373 -231 -511 -306l-5 7
q120 117 560 605l239 62q306 -150 570.5 -258.5t477.5 -169.5q205 -59 412 -103.5t415 -71.5q-132 -100 -291 -212.5t-314 -214.5q-30 -10 -105.5 -31t-192 -50.5t-198.5 -48.5q-94 -22 -197.5 -48t-203.5 -51t-215 -55t-216 -57q267 -98 429 -126q158 -28 347 -28
q435 0 698 199z" />
    <glyph glyph-name="bracketleft" unicode="[" horiz-adv-x="619" 
d="M590 -28l-52 -145l-371 -7q-5 121 -12.5 367.5t-10.5 417.5t-3 311l2 230v310l441 -41l-16 -66l-258 -65q7 -71 7 -171q0 -162 -24 -618l-31 -562z" />
    <glyph glyph-name="backslash" unicode="\" horiz-adv-x="512" 
d="M187 1284l330 -1324h-189l-333 1324h192z" />
    <glyph glyph-name="bracketright" unicode="]" horiz-adv-x="619" 
d="M28 1304l52 145l371 7q5 -121 12.5 -367.5t10.5 -417.5t3 -311l-2 -230v-310l-441 41l16 67l258 64q-7 71 -7 171q0 164 24 618l31 562z" />
    <glyph glyph-name="asciicircum" unicode="^" horiz-adv-x="1196" 
d="M401 521h-286l376 799h223l366 -799h-284l-198 489z" />
    <glyph glyph-name="underscore" unicode="_" horiz-adv-x="1024" 
d="M-12 -256v102h1048v-102h-1048z" />
    <glyph glyph-name="grave" unicode="`" horiz-adv-x="683" 
d="M386 1249l160 -261l-105 -43l-316 314z" />
    <glyph glyph-name="a" unicode="a" 
d="M362 602l22 -393q55 61 109 137.5t92 143.5q-55 79 -223 112zM366 843q15 -4 181 -35q150 -27 198 -42q47 -17 89 -54t63 -104q21 -66 21 -179l-5 -294q0 -52 10 -122q-93 -15 -341 -86q18 137 18 377q-17 -28 -99 -118t-234 -246q-117 31 -180 60q-4 38 -16 118
q-17 125 -17 226q0 146 61 246q59 99 251 253z" />
    <glyph glyph-name="b" unicode="b" horiz-adv-x="960" 
d="M486 647q-46 -90 -78 -123q0 -37 -1.5 -101.5t-2.5 -120.5q75 -33 181 -65q6 38 6 71q0 200 -105 339zM73 916v295l132 33q119 29 192 54q1 -19 1 -31v-182q0 -167 32 -379q59 56 110 131q146 -13 225 -57q78 -45 105 -122q26 -78 26 -213q0 -143 -29 -224
q-29 -78 -105 -152q-74 -73 -147 -100l-221 128q-26 -74 -40 -97l-325 -88q43 179 48 215q4 31 4 397q0 61 -4 177q-4 127 -4 215z" />
    <glyph glyph-name="c" unicode="c" horiz-adv-x="875" 
d="M326 856q202 -5 289 -26q93 -23 154 -97q61 -76 61 -192q-156 -26 -295 -79q-23 111 -120 136q-18 -181 -18 -249q0 -50 29 -82t92 -54q65 -24 118 -24q84 0 159 98l4 -4q-58 -163 -144 -238q-85 -75 -254 -75q-126 0 -203 51q-76 51 -102 125q-27 74 -27 196
q0 126 10 313q116 108 247 201z" />
    <glyph glyph-name="d" unicode="d" 
d="M360 647l10 -420l9.5 9.5l7.5 7.5q7 12 19.5 31.5t22.5 36.5l154 271q-95 44 -223 64zM931 0l-351 -64q1 32 1 75q0 160 -26 318q-34 -64 -138 -180q-111 -124 -164 -193q-102 31 -169 61q-26 154 -26 340q0 114 33 193q34 80 115 167t175 149q65 -3 195 -38q8 214 8 402
q290 54 351 68q-36 -403 -36 -874q0 -116 8.5 -226t23.5 -198z" />
    <glyph glyph-name="e" unicode="e" horiz-adv-x="853" 
d="M385 645l-26 -244q87 0 187 6q2 66 2 63q0 85 -45 128q-46 44 -118 47zM83 655l225 191l269 -20q130 -11 184 -65q56 -56 56 -122q0 -29 -8 -75q-11 -54 -23 -161q-137 -71 -208 -83q-72 -12 -138 -12q-25 0 -62 5q98 -122 191 -122q110 0 198 83h8q-100 -312 -370 -312
q-140 0 -203 39t-96 113q-34 72 -34 273l5 171z" />
    <glyph glyph-name="f" unicode="f" horiz-adv-x="789" 
d="M177 807l-14 175q85 151 190.5 226.5t231.5 75.5q88 0 190 -29q15 -91 26 -139l-56 -193q-144 114 -253 145q0 -144 -5 -177q-4 -22 -9 -68h145q83 0 167 4l-57 -200q-15 -2 -35 -3q-19 -1 -55 -5q-58 -8 -154 -10l3 -214q6 -321 17 -497l-185 -48q-127 -32 -154 -44
l-14 772l-135 -13q90 156 156 242z" />
    <glyph glyph-name="g" unicode="g" horiz-adv-x="981" 
d="M361 637v-444q39 23 123 156q85 135 95 168q-122 98 -218 120zM337 842q297 0 430 -83q131 -83 131 -255q0 -79 -12 -204l-24 -282q-6 -127 -17 -183q-10 -53 -59 -135q-47 -80 -126 -157q-83 -79 -113 -94q-36 -17 -109 -17q-229 0 -348 111l-17 207l158 150
q80 -137 332 -164l-5 258q-5 229 -8 259q-68 -94 -198 -203q-53 -46 -68 -72q-79 9 -194 61q0 -1 -16 69q-28 113 -28 207q0 116 37 186q35 68 120 170q106 123 134 171z" />
    <glyph glyph-name="h" unicode="h" horiz-adv-x="981" 
d="M80 1194l338 106l-10 -380v-246l161 167h12q204 -63 269 -133q65 -71 65 -244q0 -61 -19 -212q-11 -80 -18 -227q-146 -121 -326 -230q44 356 51 457l-37 237q-5 22 -58 175q-69 -91 -100 -123v-253q0 -5 -2 -71q-3 -61 -3 -99q0 -31 5 -118q-107 -4 -358 -41
q15 122 21 321q5 200 9 914z" />
    <glyph glyph-name="i" unicode="i" horiz-adv-x="640" 
d="M20 562l27 125q201 33 461 156v-176l-3 -75q0 -15 1 -27q1 -33 1 -91q0 -26 1 -42l7 -176q2 -57 15 -256q-206 -36 -358 -54q14 126 14 375l-4 251q-42 -17 -90 -17q-36 0 -72 7zM316 1299q75 0 130 -52q54 -52 54 -132q0 -75 -54 -129q-55 -54 -130 -54t-129 54
q-54 53 -54 129t54 130q53 54 129 54z" />
    <glyph glyph-name="j" unicode="j" horiz-adv-x="619" 
d="M175 774l381 25q-29 -141 -38 -188.5t-22 -129.5q-18 -129 -28 -287q-14 -207 -30 -277q-16 -71 -60 -148q-48 -81 -219 -304q-124 11 -233 42l-27 210l97 169l120 -58q7 101 10 317q3 231 15.5 384t33.5 245zM343 1286q74 0 130 -53q55 -52 55 -131q0 -76 -54 -130
q-55 -55 -131 -55t-130 55q-54 54 -54 130t54 130t130 54z" />
    <glyph glyph-name="k" unicode="k" horiz-adv-x="1024" 
d="M115 1208q239 71 387 84q-92 -219 -92 -812v-241q144 278 144 457q0 40 -6 80l304 56q-6 -82 -19 -133q-14 -58 -26 -77q-15 -25 -79 -102q-35 -43 -67 -103q12 1 26 1q95 0 165 -55q70 -57 149 -193q-67 -83 -121.5 -144.5t-103.5 -109.5q-62 163 -290 282
q-92 -167 -96 -209l-308 -67l1 164l-2 290q0 298 8.5 510t25.5 322z" />
    <glyph glyph-name="l" unicode="l" horiz-adv-x="619" 
d="M132 1200l196 50l148 40l-42 -738l-15 -290q74 -53 167 -107v-7q-119 -111 -200 -219q-138 29 -206 119.5t-68 243.5q0 61 6 200q6 134 14 708z" />
    <glyph glyph-name="m" unicode="m" horiz-adv-x="1472" 
d="M82 639v123q132 24 322 81l4 -159q104 106 154 159q265 -49 299 -164q63 77 152 164q126 -4 216 -44q88 -39 121 -100t33 -169q0 -83 -12 -208q-8 -88 -8 -122q0 -25 5 -103q-119 -109 -331 -225q12 77 20 259l2 23q5 92 5 144q0 139 -28 205q-29 68 -94 129
q-42 -106 -53 -127q4 -80 4 -211q0 -162 -8 -285q-232 -39 -306 -71q1 67 1 118q0 450 -104 563l-64 -114l13 -508q-278 -27 -370 -44q27 318 27 686z" />
    <glyph glyph-name="n" unicode="n" horiz-adv-x="981" 
d="M313 816l96 29v-131q28 17 100 58q24 13 47 28l85 51q93 -13 142 -32q47 -19 78 -57q30 -37 41 -75q10 -34 10 -113q0 -94 -18 -222q-19 -136 -21 -234l-185 -118l-28 -19q-80 -55 -131 -75q58 277 58 434q0 189 -83 332q-3 -4 -36 -36l-18 -20l-41 -41l5 -575
q-163 -5 -339 -48q0 52 1 69q2 62 2 74v23q-3 42 -3 59v236q0 179 -6 321q13 4 30 9.5t38.5 12.5t45.5 16z" />
    <glyph glyph-name="o" unicode="o" horiz-adv-x="1024" 
d="M428 659q-53 -89 -53 -184q0 -259 265 -316q25 100 25 196q0 154 -73 221q-72 66 -164 83zM857 820l-54 -92q75 -23 122 -97q48 -75 48 -185q0 -106 -41 -197q-42 -90 -89 -131q-48 -43 -165 -101q-21 -10 -59 -37q-29 -22 -50 -33q-195 1 -355 110q-160 106 -160 268
q0 264 365 506q167 -15 283 -15q86 0 155 4z" />
    <glyph glyph-name="p" unicode="p" horiz-adv-x="981" 
d="M390 518q10 -61 10 -116l-1 -126q71 -28 186 -57q8 54 8 104q0 235 -80 312q-61 -64 -123 -117zM11 772q151 25 223 38.5t135 30.5q16 -106 21 -175q83 51 142.5 98t98.5 92q136 -37 220 -109q82 -72 82 -241q0 -300 -282 -527l-132 59l-74 31q-90 -378 -126 -602
l-277 25q5 47 18 201.5t18 273.5t5 196q0 431 -72 609z" />
    <glyph glyph-name="q" unicode="q" horiz-adv-x="981" 
d="M440 867q100 -19 180 -47t136 -67q61 -42 89 -80q29 -41 35 -65q5 -25 12 -219q7 -182 7 -265q0 -347 -17 -562q-230 -61 -317 -105q23 431 23 590q0 298 -44 419q-43 120 -224 204q-2 -44 -2 -49q0 -254 180 -400q-12 -33 -70 -131q-62 -102 -88 -133q-99 32 -150 70
q-52 38 -97 141q-46 99 -46 235q0 92 29 219q40 31 85.5 64.5t91.5 64.5t90.5 59t96.5 57z" />
    <glyph glyph-name="r" unicode="r" horiz-adv-x="789" 
d="M105 548l7 288l303 -28l17 -231q24 68 43 132q15 53 33 82q16 28 57 49q39 21 94 21q62 0 137 -29l-33 -127q-25 -103 -63 -228q-120 79 -162 91q-80 -105 -95 -159q6 -90 13 -139q90 -32 159 -32q-42 -118 -103 -258q-208 0 -255 25q-49 24 -102 82q-54 59 -54 224
q0 108 4 237z" />
    <glyph glyph-name="s" unicode="s" horiz-adv-x="1045" 
d="M360 849q6 0 172 -12q178 -11 347 -11q-1 -4 -22 -75q-35 -116 -36 -172q-117 46 -455 75q48 -142 314 -142q140 0 192 -12q50 -12 79 -50q28 -37 28 -107q0 -75 -32 -147q-34 -72 -79 -116q-46 -45 -162 -81q-115 -36 -242 -36q-220 0 -367 90q18 60 55 147
q156 -68 353 -68q104 0 192 58q-61 43 -133 43q-15 0 -36 -1q-50 -2 -57 -2q-197 0 -300 59q-103 58 -103 202q0 114 62 191q61 76 230 167z" />
    <glyph glyph-name="t" unicode="t" horiz-adv-x="683" 
d="M149 856l-1 81q12 2 95 10q141 15 210 25q1 -16 1 -34q0 -32 -7 -106q32 -3 127 -3q65 0 87 3q-27 -162 -35 -191q-67 -10 -185 -15q-7 -148 -7 -202q0 -87 41 -139q40 -51 139 -80l-173 -262q-327 90 -327 338q0 41 14 158q14 121 16 163q-46 -1 -102 -11l106 182v20z
" />
    <glyph glyph-name="u" unicode="u" horiz-adv-x="1088" 
d="M126 785q118 8 361 80q-13 -33 -28 -137q-9 -62 -24 -140q-15 -81 -15 -144q0 -66 25 -126q26 -67 70 -152q93 74 133 127q1 29 1 112q0 279 -25 407q39 -7 72 -7q125 0 289 26q-9 -154 -9 -376q0 -129 9 -434q-57 -10 -223 -43l-138 -27q18 95 18 174q-77 -38 -256 -159
q-140 36 -177 58q-39 21 -75 88q-36 68 -36 194q0 248 28 479z" />
    <glyph glyph-name="v" unicode="v" horiz-adv-x="981" 
d="M159 867q156 -18 214 -90q59 -74 138 -370q32 -115 60 -192q103 251 103 367q0 76 -87 131q78 34 233 117q137 -77 137 -175q0 -51 -12 -113q-13 -61 -27 -87q-15 -25 -75 -84q-61 -60 -171 -156q-10 -19 -72 -177q-192 -38 -290 -83q-60 247 -101 353q-39 97 -68 156
q-25 51 -97 85q21 42 115 318z" />
    <glyph glyph-name="w" unicode="w" horiz-adv-x="1643" 
d="M150 852q128 -18 194 -44q65 -27 114 -156q14 -37 31 -102t34 -150t33 -189q97 228 175 488l152 37l88 20q41 -40 84 -111q41 -67 59 -119q16 -45 42 -172q15 -76 36 -152q127 294 127 389q0 65 -58 108q230 119 247 122q101 -77 101 -150q0 -84 -30 -188
q-32 -105 -46 -118q-20 -18 -109 -83l-128 -96q-13 -18 -104 -186q-184 -36 -275 -75q-47 257 -127 427q-149 -176 -229 -352q-80 -12 -145.5 -31t-121.5 -48l-65 270q-56 239 -80 282q-26 47 -95 66q82 240 96 313z" />
    <glyph glyph-name="x" unicode="x" horiz-adv-x="939" 
d="M7 799l381 95q96 -108 178 -247l138 199q172 -20 236 -20v-9l-119 -132q-98 -108 -182 -192q124 -154 169 -493q-170 -52 -256 -112q-21 122 -114 288q-63 -58 -259 -217q-56 -13 -238 -68q151 141 253 244l168 169q-88 154 -174 290q-81 127 -181 205z" />
    <glyph glyph-name="y" unicode="y" 
d="M83 570v207q220 7 365 61l-14 -223l-13 -258q94 153 125 232q33 83 57 231q122 -10 348 -27q-18 -82 -52 -396l-31 -327q-14 -141 -31 -202q-21 -67 -83 -158q-67 -98 -191 -228q-315 29 -484 148l-57 137q45 73 123 174q54 -66 157 -91q104 -26 249 -48q-20 232 -20 365
q0 82 6 194l-226 -291q-37 -46 -45 -90q-80 10 -151 42q-9 77 -15 162q-6 63 -11 189q-5 104 -6 197z" />
    <glyph glyph-name="z" unicode="z" horiz-adv-x="939" 
d="M48 464l76 382q77 -30 316 -44l431 -23l-82 -263q-179 -71 -365 -250q74 24 147 24q110 0 242 -34q50 -93 89 -190q-30 -67 -152 -275q-50 94 -92 164l-109 14q-206 26 -333 26q-70 0 -159 -9l345 478l-53 3q-97 4 -156 4q-76 0 -145 -7z" />
    <glyph glyph-name="braceleft" unicode="{" horiz-adv-x="683" 
d="M57 413v163q99 3 153 67q54 65 54 321q0 231 25 318q24 89 94 132q69 42 197 42h56v-157h-31q-99 0 -136 -35q-36 -36 -36 -171q0 -237 -10 -326q-11 -95 -55 -159q-47 -67 -144 -113q102 -40 156 -134q53 -95 53 -316q0 -195 6 -247q6 -55 39 -80q33 -27 127 -27h31
v-157h-56q-96 0 -153 20q-58 20 -97 74q-42 55 -54 138q-12 82 -12 260q0 177 -19 244q-19 69 -67 106q-49 35 -121 37z" />
    <glyph glyph-name="bar" unicode="|" horiz-adv-x="1259" 
d="M504 -568v1852h250v-1852h-250z" />
    <glyph glyph-name="braceright" unicode="}" horiz-adv-x="683" 
d="M626 576v-163q-99 -1 -153 -66q-54 -64 -54 -321q0 -230 -24 -318q-26 -89 -94 -131q-70 -43 -198 -43h-56v157h31q100 0 136 36q36 34 36 170q0 235 11 332q10 90 61 161q50 68 137 105q-125 56 -167 156q-42 101 -42 294q0 194 -6 248q-6 53 -39 80q-34 26 -127 26h-31
v157h56q97 0 154 -20q54 -19 97 -74q41 -57 53 -137q12 -82 12 -261q0 -177 19 -244q20 -71 68 -106q49 -37 120 -38z" />
    <glyph glyph-name="asciitilde" unicode="~" horiz-adv-x="1344" 
d="M1232 795v-254q-160 -144 -318 -144q-71 0 -136 25q-73 28 -158 70q-132 66 -201 66q-151 0 -308 -151v255q163 142 326 142q100 0 271 -85q152 -75 228 -75q130 0 296 151z" />
    <glyph glyph-name="Adieresis" unicode="&#xc4;" horiz-adv-x="2731" 
d="M528 193q-78 -111 -78 -221q0 -115 77 -168t183 -53q81 0 222 21q5 9 117 128q102 108 309 346q-494 -17 -830 -53zM1670 429q77 -9 217 -34.5t304 -59.5q-39 318 -124 677q-110 -199 -397 -583zM1368 1073q10 23 26 48q30 54 50 92q339 107 634 107q94 0 179 -20
q81 -19 132 -67q50 -46 78 -138q29 -92 45 -223l23 -180l67 -465q40 -285 84 -442q-318 -93 -451 -156q0 113 -32 614q-187 12 -254 12q-72 -3 -189.5 -9.5t-219.5 -12.5q-380 -419 -613 -555q-235 -137 -441 -137q-200 0 -328 100q-129 99 -129 207q0 122 135 272
q133 148 353 261q219 111 521 111q72 0 137.5 -4t148 -13t167.5 -21l201 291q59 86 236 393q-118 -3 -261.5 -20t-298.5 -45zM2173 1437q56 140 78 258q32 0 102 -15q71 -17 96 -40q26 -26 26 -59q0 -44 -39 -112q-41 -68 -86 -68q-43 0 -177 36zM1777 1441q41 94 80 256
q101 -11 159 -34q59 -24 59 -79q0 -50 -40 -117q-41 -68 -93 -68q-49 0 -165 42z" />
    <glyph glyph-name="Aring" unicode="&#xc5;" horiz-adv-x="2731" 
d="M1363 224q-423 -10 -825 -42q-86 -112 -86 -214q0 -109 75 -170q75 -63 218 -63q82 0 196 27q97 97 188.5 194t151 166t82.5 102zM1685 405l517 -95q-12 109 -26 208.5t-30 184.5t-35 159t-36 124q-84 -134 -137.5 -216t-120.5 -179.5t-132 -185.5zM2416 1375
q28 49 28 98q0 89 -64 144q-65 56 -151 56q-29 0 -87 -11q-42 -61 -42 -102q0 -47 51 -76q49 -28 265 -109zM2428 1326q6 -49 25 -185t43.5 -290t50.5 -308q29 -169 51 -292.5t48.5 -257t45.5 -217.5q-136 -33 -252 -79.5t-208 -105.5q-1 33 -1 53q0 227 -20 572
q-107 3 -185.5 5.5t-138.5 3.5t-141 1q-89 0 -204 -5q-552 -688 -1021 -688q-201 0 -346 97q-146 96 -146 203q0 114 104 239q53 63 109.5 112.5t128.5 95.5q137 85 281 140q149 57 401 57q192 0 451 -45l261 399q65 100 127 207q66 114 140 282q-82 46 -82 128
q0 121 115 212q116 90 294 90q113 0 177 -59q63 -58 63 -128q0 -99 -171 -237z" />
    <glyph glyph-name="Ccedilla" unicode="&#xc7;" horiz-adv-x="1813" 
d="M1099 -536q134 -56 134 -149q0 -116 -153 -198q-154 -83 -390 -83q-89 0 -184 12l58 57q196 0 299 41q101 41 101 107q0 83 -156 92l225 119q-357 0 -554 87q-195 85 -280 229q-85 142 -85 311q0 230 102 461q101 231 276 403t415 271t475 99q102 0 220 -23l60 -221
q-22 -187 -117 -513q-74 174 -155 319q-198 80 -389 80q-312 0 -487 -184q-176 -185 -176 -433q0 -136 74 -234q73 -97 280 -180q208 -83 520 -125q104 -15 213 -24t239 -14t243 -5l-176 -231q-359 -65 -632 -71z" />
    <glyph glyph-name="Eacute" unicode="&#xc9;" horiz-adv-x="1536" 
d="M834 1320q124 -5 226.5 -36.5t179.5 -88.5q159 -115 159 -261q0 -24 -18 -119l-23 -135q-334 338 -643 353q-40 -76 -40 -175q0 -167 104 -280t291 -125q-16 -42 -82 -152q-21 -35 -41 -72q-48 -20 -59 -20q-67 0 -187 41q-118 40 -189 97q-127 -163 -127 -290
q0 -285 639 -285q112 0 217 38q99 36 306 172q-36 -102 -59.5 -163.5t-53 -130.5t-52.5 -116q-211 -126 -560 -126q-346 0 -558 116q-213 115 -213 321q0 155 113 295q111 138 310 247q-24 72 -24 137q0 215 107 431q106 212 277 327zM1244 1721l-353 -324l-86 39l161 273z
" />
    <glyph glyph-name="Ntilde" unicode="&#xd1;" horiz-adv-x="2859" 
d="M2499 1123l366 200l62 -63l-65 -335l-193 -235q-18 66 -50 160.5t-58 158.5q-33 -105 -65.5 -229t-62 -264.5t-46.5 -255t-34 -262.5l-433 -343l-182 1217l-300 -615q-84 -171 -150 -285.5t-125 -192.5q-60 -78 -121 -132.5t-127 -87.5q-132 -66 -266 -66q-104 0 -236 40
q-133 38 -219 86q-83 45 -101 68q-18 21 -31 91l-80 379l292 204q29 -122 64.5 -218t77 -169.5t93.5 -130.5q149 -162 291 -162q103 0 202 87q98 87 198 306q91 198 248 590q147 371 147 475q0 8 -1 15l389 173l203 -252q9 -427 31 -687l120 348q47 131 162 387zM2622 1688
l105 -42q-37 -76 -102 -161q-68 -86 -106 -86q-14 0 -149 47l-196 75q-9 -7 -91 -121l-75 31q136 216 196 257q35 -7 119 -35q60 -20 83 -26q55 -16 89 -28q28 -11 43 -11q20 0 42 37q6 11 42 63z" />
    <glyph glyph-name="Odieresis" unicode="&#xd6;" horiz-adv-x="2368" 
d="M1430 1205l-65 -107q-322 -38 -553 -137q-235 -100 -312 -216q-78 -115 -78 -285q0 -326 242 -527t583 -201q336 0 514 237q179 238 179 439q0 45 -22 142q-257 116 -315 512q319 241 478 259q124 -101 192 -272q69 -172 69 -323q0 -329 -251 -637q-249 -306 -592 -475
q-339 -169 -626 -169q-328 0 -579 196q-252 195 -252 550q0 231 87 400q85 168 274 306q95 69 208 124t244 97q264 84 575 87zM1629 1437q56 140 78 258q32 0 102 -15q71 -17 96 -40q26 -26 26 -59q0 -44 -39 -112q-41 -68 -86 -68q-43 0 -177 36zM1233 1441q41 94 80 256
q101 -11 159 -34q59 -24 59 -79q0 -50 -40 -117q-41 -68 -93 -68q-49 0 -165 42z" />
    <glyph glyph-name="Udieresis" unicode="&#xdc;" horiz-adv-x="2304" 
d="M1689 955l345 211l296 68q-219 -963 -219 -1440q0 -42 1 -75q-137 -101 -454 -250q5 328 144 1002q-191 -408 -581 -704q-390 -297 -771 -297q-116 0 -209 28q-94 28 -150 66t-75 74q-20 38 -20 98q0 148 104 294q34 48 111.5 135t206 220.5t267.5 270.5q168 167 223 261
q20 36 30 47q8 11 8 16q0 10 -30 19q-34 8 -68 8q-132 0 -711 -240l87 198q130 79 228.5 134t187 98.5t140.5 62.5q174 64 316 64q301 0 301 -120q0 -90 -140 -257q-44 -53 -111.5 -118.5t-160 -146t-213.5 -177.5q-75 -59 -130 -105t-64 -55q-41 -38 -158 -161
q-116 -122 -124 -136t-8 -23q0 -45 127 -139q66 -48 153.5 -71t197.5 -23q390 0 642 318q251 319 281 845zM1839 1437q56 140 78 258q32 0 102 -15q71 -17 96 -40q26 -26 26 -59q0 -44 -39 -112q-41 -68 -86 -68q-43 0 -177 36zM1443 1441q41 94 80 256q101 -11 159 -34
q59 -24 59 -79q0 -50 -40 -117q-41 -68 -93 -68q-49 0 -165 42z" />
    <glyph glyph-name="aacute" unicode="&#xe1;" 
d="M362 602l22 -393q55 61 109 137.5t92 143.5q-55 79 -223 112zM366 843q15 -4 181 -35q150 -27 198 -42q47 -17 89 -54t63 -104q21 -66 21 -179l-5 -294q0 -52 10 -122q-93 -15 -341 -86q18 137 18 377q-17 -28 -99 -118t-234 -246q-117 31 -180 60q-4 38 -16 118
q-17 125 -17 226q0 146 61 246q59 99 251 253zM797 1270l-353 -324l-86 39l161 273z" />
    <glyph glyph-name="agrave" unicode="&#xe0;" 
d="M362 602l22 -393q55 61 109 137.5t92 143.5q-55 79 -223 112zM366 843q15 -4 181 -35q150 -27 198 -42q47 -17 89 -54t63 -104q21 -66 21 -179l-5 -294q0 -52 10 -122q-93 -15 -341 -86q18 137 18 377q-17 -28 -99 -118t-234 -246q-117 31 -180 60q-4 38 -16 118
q-17 125 -17 226q0 146 61 246q59 99 251 253zM547 1249l160 -261l-105 -43l-316 314z" />
    <glyph glyph-name="acircumflex" unicode="&#xe2;" 
d="M362 602l22 -393q55 61 109 137.5t92 143.5q-55 79 -223 112zM366 843q15 -4 181 -35q150 -27 198 -42q47 -17 89 -54t63 -104q21 -66 21 -179l-5 -294q0 -52 10 -122q-93 -15 -341 -86q18 137 18 377q-17 -28 -99 -118t-234 -246q-117 31 -180 60q-4 38 -16 118
q-17 125 -17 226q0 146 61 246q59 99 251 253zM427 1154l-168 -201l-83 36l227 274l178 4l202 -243l-143 -71z" />
    <glyph glyph-name="adieresis" unicode="&#xe4;" 
d="M362 602l22 -393q55 61 109 137.5t92 143.5q-55 79 -223 112zM366 843q15 -4 181 -35q150 -27 198 -42q47 -17 89 -54t63 -104q21 -66 21 -179l-5 -294q0 -52 10 -122q-93 -15 -341 -86q18 137 18 377q-17 -28 -99 -118t-234 -246q-117 31 -180 60q-4 38 -16 118
q-17 125 -17 226q0 146 61 246q59 99 251 253zM525 986q56 140 78 258q32 0 102 -15q71 -17 96 -40q26 -26 26 -59q0 -44 -39 -112q-41 -68 -86 -68q-43 0 -177 36zM129 990q41 94 80 256q101 -11 159 -34q59 -24 59 -79q0 -50 -40 -117q-41 -68 -93 -68q-49 0 -165 42z" />
    <glyph glyph-name="atilde" unicode="&#xe3;" 
d="M362 602l22 -393q55 61 109 137.5t92 143.5q-55 79 -223 112zM366 843q15 -4 181 -35q150 -27 198 -42q47 -17 89 -54t63 -104q21 -66 21 -179l-5 -294q0 -52 10 -122q-93 -15 -341 -86q18 137 18 377q-17 -28 -99 -118t-234 -246q-117 31 -180 60q-4 38 -16 118
q-17 125 -17 226q0 146 61 246q59 99 251 253zM801 1237l105 -42q-37 -76 -102 -161q-68 -86 -106 -86q-14 0 -149 47l-196 75q-9 -7 -91 -121l-75 31q136 216 196 257q35 -7 119 -35q60 -20 83 -26q55 -16 89 -28q28 -11 43 -11q20 0 42 37q6 11 42 63z" />
    <glyph glyph-name="aring" unicode="&#xe5;" 
d="M362 602l22 -393q55 61 109 137.5t92 143.5q-55 79 -223 112zM366 843q15 -4 181 -35q150 -27 198 -42q47 -17 89 -54t63 -104q21 -66 21 -179l-5 -294q0 -52 10 -122q-93 -15 -341 -86q18 137 18 377q-17 -28 -99 -118t-234 -246q-117 31 -180 60q-4 38 -16 118
q-17 125 -17 226q0 146 61 246q59 99 251 253zM576 1036q23 48 23 96q0 111 -115 132q-42 -54 -42 -111q0 -48 41 -83q40 -34 93 -34zM730 1172q0 -64 -20 -106q-20 -39 -89 -76q-67 -37 -130 -37q-68 0 -126 46q-59 45 -59 117q0 69 66 144t138 75q75 0 148 -38
q72 -37 72 -125z" />
    <glyph glyph-name="ccedilla" unicode="&#xe7;" horiz-adv-x="896" 
d="M347 857q69 0 134 -4.5t111 -12.5t74 -19q90 -36 138 -105q47 -70 47 -165v-9q-175 -29 -294 -80q-20 105 -120 136q-19 -183 -19 -250q0 -48 28 -79t91 -55q62 -24 122 -24q82 0 157 97l5 -4q-45 -129 -125 -218q-81 -89 -248 -94q99 -14 143 -68q43 -53 43 -115
q0 -91 -90 -154q-91 -63 -247 -63q-62 0 -139 13l21 121l30 -1q164 0 164 77q0 27 -20 45q-22 19 -89 50q27 13 173 95q-131 0 -210 47t-107 123q-29 76 -29 201q0 179 10 313q128 115 246 202z" />
    <glyph glyph-name="eacute" unicode="&#xe9;" horiz-adv-x="853" 
d="M385 645l-26 -244q87 0 187 6q2 66 2 63q0 85 -45 128q-46 44 -118 47zM83 655l225 191l269 -20q130 -11 184 -65q56 -56 56 -122q0 -29 -8 -75q-11 -54 -23 -161q-137 -71 -208 -83q-72 -12 -138 -12q-25 0 -62 5q98 -122 191 -122q110 0 198 83h8q-100 -312 -370 -312
q-140 0 -203 39t-96 113q-34 72 -34 273l5 171zM721 1270l-353 -324l-86 39l161 273z" />
    <glyph glyph-name="egrave" unicode="&#xe8;" horiz-adv-x="853" 
d="M385 645l-26 -244q87 0 187 6q2 66 2 63q0 85 -45 128q-46 44 -118 47zM83 655l225 191l269 -20q130 -11 184 -65q56 -56 56 -122q0 -29 -8 -75q-11 -54 -23 -161q-137 -71 -208 -83q-72 -12 -138 -12q-25 0 -62 5q98 -122 191 -122q110 0 198 83h8q-100 -312 -370 -312
q-140 0 -203 39t-96 113q-34 72 -34 273l5 171zM472 1249l160 -261l-105 -43l-316 314z" />
    <glyph glyph-name="ecircumflex" unicode="&#xea;" horiz-adv-x="853" 
d="M385 645l-26 -244q87 0 187 6q2 66 2 63q0 85 -45 128q-46 44 -118 47zM83 655l225 191l269 -20q130 -11 184 -65q56 -56 56 -122q0 -29 -8 -75q-11 -54 -23 -161q-137 -71 -208 -83q-72 -12 -138 -12q-25 0 -62 5q98 -122 191 -122q110 0 198 83h8q-100 -312 -370 -312
q-140 0 -203 39t-96 113q-34 72 -34 273l5 171zM400 1154l-168 -201l-83 36l227 274l178 4l202 -243l-143 -71z" />
    <glyph glyph-name="edieresis" unicode="&#xeb;" horiz-adv-x="853" 
d="M385 645l-26 -244q87 0 187 6q2 66 2 63q0 85 -45 128q-46 44 -118 47zM83 655l225 191l269 -20q130 -11 184 -65q56 -56 56 -122q0 -29 -8 -75q-11 -54 -23 -161q-137 -71 -208 -83q-72 -12 -138 -12q-25 0 -62 5q98 -122 191 -122q110 0 198 83h8q-100 -312 -370 -312
q-140 0 -203 39t-96 113q-34 72 -34 273l5 171zM486 986q56 140 78 258q32 0 102 -15q71 -17 96 -40q26 -26 26 -59q0 -44 -39 -112q-41 -68 -86 -68q-43 0 -177 36zM90 990q41 94 80 256q101 -11 159 -34q59 -24 59 -79q0 -50 -40 -117q-41 -68 -93 -68q-49 0 -165 42z" />
    <glyph glyph-name="iacute" unicode="&#xed;" horiz-adv-x="640" 
d="M20 562l27 125q201 33 461 156v-176l-3 -75q0 -15 1 -27q1 -33 1 -91q0 -26 1 -42l7 -176q2 -57 15 -256q-206 -36 -358 -54q14 126 14 375l-4 251q-42 -17 -90 -17q-36 0 -72 7zM615 1270l-353 -324l-86 39l161 273z" />
    <glyph glyph-name="igrave" unicode="&#xec;" horiz-adv-x="640" 
d="M20 562l27 125q201 33 461 156v-176l-3 -75q0 -15 1 -27q1 -33 1 -91q0 -26 1 -42l7 -176q2 -57 15 -256q-206 -36 -358 -54q14 126 14 375l-4 251q-42 -17 -90 -17q-36 0 -72 7zM365 1249l160 -261l-105 -43l-316 314z" />
    <glyph glyph-name="icircumflex" unicode="&#xee;" horiz-adv-x="640" 
d="M20 562l27 125q201 33 461 156v-176l-3 -75q0 -15 1 -27q1 -33 1 -91q0 -26 1 -42l7 -176q2 -57 15 -256q-206 -36 -358 -54q14 126 14 375l-4 251q-42 -17 -90 -17q-36 0 -72 7zM294 1154l-168 -201l-83 36l227 274l178 4l202 -243l-143 -71z" />
    <glyph glyph-name="idieresis" unicode="&#xef;" horiz-adv-x="640" 
d="M20 562l27 125q201 33 461 156v-176l-3 -75q0 -15 1 -27q1 -33 1 -91q0 -26 1 -42l7 -176q2 -57 15 -256q-206 -36 -358 -54q14 126 14 375l-4 251q-42 -17 -90 -17q-36 0 -72 7zM379 986q56 140 78 258q32 0 102 -15q71 -17 96 -40q26 -26 26 -59q0 -44 -39 -112
q-41 -68 -86 -68q-43 0 -177 36zM-17 990q41 94 80 256q101 -11 159 -34q59 -24 59 -79q0 -50 -40 -117q-41 -68 -93 -68q-49 0 -165 42z" />
    <glyph glyph-name="ntilde" unicode="&#xf1;" horiz-adv-x="981" 
d="M313 816l96 29v-131q28 17 100 58q24 13 47 28l85 51q93 -13 142 -32q47 -19 78 -57q30 -37 41 -75q10 -34 10 -113q0 -94 -18 -222q-19 -136 -21 -234l-185 -118l-28 -19q-80 -55 -131 -75q58 277 58 434q0 189 -83 332q-3 -4 -36 -36l-18 -20l-41 -41l5 -575
q-163 -5 -339 -48q0 52 1 69q2 62 2 74v23q-3 42 -3 59v236q0 179 -6 321q13 4 30 9.5t38.5 12.5t45.5 16zM789 1237l105 -42q-37 -76 -102 -161q-68 -86 -106 -86q-14 0 -149 47l-196 75q-9 -7 -91 -121l-75 31q136 216 196 257q35 -7 119 -35q60 -20 83 -26q55 -16 89 -28
q28 -11 43 -11q20 0 42 37q6 11 42 63z" />
    <glyph glyph-name="oacute" unicode="&#xf3;" horiz-adv-x="1024" 
d="M428 659q-53 -89 -53 -184q0 -259 265 -316q25 100 25 196q0 154 -73 221q-72 66 -164 83zM857 820l-54 -92q75 -23 122 -97q48 -75 48 -185q0 -106 -41 -197q-42 -90 -89 -131q-48 -43 -165 -101q-21 -10 -59 -37q-29 -22 -50 -33q-195 1 -355 110q-160 106 -160 268
q0 264 365 506q167 -15 283 -15q86 0 155 4zM807 1270l-353 -324l-86 39l161 273z" />
    <glyph glyph-name="ograve" unicode="&#xf2;" horiz-adv-x="1024" 
d="M428 659q-53 -89 -53 -184q0 -259 265 -316q25 100 25 196q0 154 -73 221q-72 66 -164 83zM857 820l-54 -92q75 -23 122 -97q48 -75 48 -185q0 -106 -41 -197q-42 -90 -89 -131q-48 -43 -165 -101q-21 -10 -59 -37q-29 -22 -50 -33q-195 1 -355 110q-160 106 -160 268
q0 264 365 506q167 -15 283 -15q86 0 155 4zM558 1249l160 -261l-105 -43l-316 314z" />
    <glyph glyph-name="ocircumflex" unicode="&#xf4;" horiz-adv-x="1024" 
d="M428 659q-53 -89 -53 -184q0 -259 265 -316q25 100 25 196q0 154 -73 221q-72 66 -164 83zM857 820l-54 -92q75 -23 122 -97q48 -75 48 -185q0 -106 -41 -197q-42 -90 -89 -131q-48 -43 -165 -101q-21 -10 -59 -37q-29 -22 -50 -33q-195 1 -355 110q-160 106 -160 268
q0 264 365 506q167 -15 283 -15q86 0 155 4zM522 1154l-168 -201l-83 36l227 274l178 4l202 -243l-143 -71z" />
    <glyph glyph-name="odieresis" unicode="&#xf6;" horiz-adv-x="1024" 
d="M428 659q-53 -89 -53 -184q0 -259 265 -316q25 100 25 196q0 154 -73 221q-72 66 -164 83zM857 820l-54 -92q75 -23 122 -97q48 -75 48 -185q0 -106 -41 -197q-42 -90 -89 -131q-48 -43 -165 -101q-21 -10 -59 -37q-29 -22 -50 -33q-195 1 -355 110q-160 106 -160 268
q0 264 365 506q167 -15 283 -15q86 0 155 4zM608 986q56 140 78 258q32 0 102 -15q71 -17 96 -40q26 -26 26 -59q0 -44 -39 -112q-41 -68 -86 -68q-43 0 -177 36zM212 990q41 94 80 256q101 -11 159 -34q59 -24 59 -79q0 -50 -40 -117q-41 -68 -93 -68q-49 0 -165 42z" />
    <glyph glyph-name="otilde" unicode="&#xf5;" horiz-adv-x="1024" 
d="M428 659q-53 -89 -53 -184q0 -259 265 -316q25 100 25 196q0 154 -73 221q-72 66 -164 83zM857 820l-54 -92q75 -23 122 -97q48 -75 48 -185q0 -106 -41 -197q-42 -90 -89 -131q-48 -43 -165 -101q-21 -10 -59 -37q-29 -22 -50 -33q-195 1 -355 110q-160 106 -160 268
q0 264 365 506q167 -15 283 -15q86 0 155 4zM811 1237l105 -42q-37 -76 -102 -161q-68 -86 -106 -86q-14 0 -149 47l-196 75q-9 -7 -91 -121l-75 31q136 216 196 257q35 -7 119 -35q60 -20 83 -26q55 -16 89 -28q28 -11 43 -11q20 0 42 37q6 11 42 63z" />
    <glyph glyph-name="uacute" unicode="&#xfa;" horiz-adv-x="1088" 
d="M126 785q118 8 361 80q-13 -33 -28 -137q-9 -62 -24 -140q-15 -81 -15 -144q0 -66 25 -126q26 -67 70 -152q93 74 133 127q1 29 1 112q0 279 -25 407q39 -7 72 -7q125 0 289 26q-9 -154 -9 -376q0 -129 9 -434q-57 -10 -223 -43l-138 -27q18 95 18 174q-77 -38 -256 -159
q-140 36 -177 58q-39 21 -75 88q-36 68 -36 194q0 248 28 479zM839 1270l-353 -324l-86 39l161 273z" />
    <glyph glyph-name="ugrave" unicode="&#xf9;" horiz-adv-x="1088" 
d="M126 785q118 8 361 80q-13 -33 -28 -137q-9 -62 -24 -140q-15 -81 -15 -144q0 -66 25 -126q26 -67 70 -152q93 74 133 127q1 29 1 112q0 279 -25 407q39 -7 72 -7q125 0 289 26q-9 -154 -9 -376q0 -129 9 -434q-57 -10 -223 -43l-138 -27q18 95 18 174q-77 -38 -256 -159
q-140 36 -177 58q-39 21 -75 88q-36 68 -36 194q0 248 28 479zM590 1249l160 -261l-105 -43l-316 314z" />
    <glyph glyph-name="ucircumflex" unicode="&#xfb;" horiz-adv-x="1088" 
d="M126 785q118 8 361 80q-13 -33 -28 -137q-9 -62 -24 -140q-15 -81 -15 -144q0 -66 25 -126q26 -67 70 -152q93 74 133 127q1 29 1 112q0 279 -25 407q39 -7 72 -7q125 0 289 26q-9 -154 -9 -376q0 -129 9 -434q-57 -10 -223 -43l-138 -27q18 95 18 174q-77 -38 -256 -159
q-140 36 -177 58q-39 21 -75 88q-36 68 -36 194q0 248 28 479zM530 1154l-168 -201l-83 36l227 274l178 4l202 -243l-143 -71z" />
    <glyph glyph-name="udieresis" unicode="&#xfc;" horiz-adv-x="1088" 
d="M126 785q118 8 361 80q-13 -33 -28 -137q-9 -62 -24 -140q-15 -81 -15 -144q0 -66 25 -126q26 -67 70 -152q93 74 133 127q1 29 1 112q0 279 -25 407q39 -7 72 -7q125 0 289 26q-9 -154 -9 -376q0 -129 9 -434q-57 -10 -223 -43l-138 -27q18 95 18 174q-77 -38 -256 -159
q-140 36 -177 58q-39 21 -75 88q-36 68 -36 194q0 248 28 479zM628 986q56 140 78 258q32 0 102 -15q71 -17 96 -40q26 -26 26 -59q0 -44 -39 -112q-41 -68 -86 -68q-43 0 -177 36zM232 990q41 94 80 256q101 -11 159 -34q59 -24 59 -79q0 -50 -40 -117q-41 -68 -93 -68
q-49 0 -165 42z" />
    <glyph glyph-name="dagger" unicode="&#x2020;" horiz-adv-x="896" 
d="M344 378v381l202 22q-33 -304 -33 -368v-35q81 -6 136 -6q112 0 221 27q-52 -82 -171 -186q-75 -29 -199 -43l-5 -455q-46 -21 -146 -36l-5 520q-108 -21 -255 -21q-20 0 -60 2q41 147 51 193z" />
    <glyph glyph-name="degree" unicode="&#xb0;" horiz-adv-x="811" 
d="M252 1001q0 -60 44 -107q43 -46 109 -46q63 0 108 45q45 44 45 108q0 63 -45 108t-108 45t-108 -45t-45 -108zM86 1001q0 132 94 226q95 93 225 93q132 0 226 -93q93 -94 93 -226q0 -133 -93 -226q-94 -93 -226 -93q-135 0 -227 95t-92 224z" />
    <glyph glyph-name="cent" unicode="&#xa2;" horiz-adv-x="875" 
d="M569 840l66 179l83 -32l-61 -172q174 -78 174 -274q-156 -26 -295 -79q-23 111 -120 136q-18 -181 -18 -249q0 -50 29 -82t92 -54q65 -24 118 -24q84 0 159 98l4 -4q-58 -163 -144 -238q-85 -75 -254 -75q-24 0 -50 3l-51 -145l-89 31l49 133q-72 24 -113 73
q-44 48 -60 106q-18 59 -18 171q0 126 10 313q116 108 247 201q133 -1 242 -16z" />
    <glyph glyph-name="sterling" unicode="&#xa3;" 
d="M425 1275l527 27v-5q-86 -49 -199 -174t-177 -287l403 5v-10l-109 -129h-337q-13 -82 -16 -200q-3 -107 -23 -198q71 21 128 21q152 0 301 -41q-109 -228 -140 -330q-147 42 -363 42q-237 0 -398 -54v5q108 178 131 283q22 98 22 225q0 128 -17 272h-126q9 60 13 104h119
q11 228 261 444z" />
    <glyph glyph-name="section" unicode="&#xa7;" horiz-adv-x="960" 
d="M533 465l-229 104l-52 -53q-9 -31 -9 -57q0 -69 67 -121q67 -53 204 -107q134 -52 140 -59l52 48q12 33 12 62q0 51 -33 90q-35 38 -152 93zM950 1150q-75 -107 -136 -263q-161 188 -459 188q-28 0 -108 -5q9 -129 55 -181q47 -53 286 -153q232 -96 277 -150
q45 -55 45 -109q0 -55 -22 -112q-22 -58 -134 -242q158 -83 158 -245q0 -170 -110 -306q-111 -135 -348 -135q-261 0 -445 160q95 150 135 264q153 -194 447 -194q48 0 119 4q-4 118 -57 180q-52 60 -269 143q-197 76 -268 134q-69 57 -69 147q0 41 26 104q24 59 131 240
q-94 46 -126 103q-32 56 -32 136q0 134 64 237q65 104 147 155q83 51 247 51q250 0 446 -151z" />
    <glyph glyph-name="bullet" unicode="&#x2022;" horiz-adv-x="939" 
d="M469 957q125 0 213 -88q89 -89 89 -214q0 -124 -89 -213t-213 -89t-213 89t-89 213q0 129 90 216q91 86 212 86z" />
    <glyph glyph-name="paragraph" unicode="&#xb6;" horiz-adv-x="1131" 
d="M807 1174l-145 -55q-69 -220 -69 -410q0 -327 192 -549zM989 1299l-47 -680q-13 -190 -31 -368t-42 -343q129 -1 234 -14q-59 -194 -71 -247l-72 2q-123 0 -215 -33q20 215 28 367q-42 -1 -94 -1q-348 0 -492 166q-144 167 -144 430q0 278 186 561q49 17 124 37
t159.5 37.5t230 44t246.5 41.5z" />
    <glyph glyph-name="germandbls" unicode="&#xdf;" horiz-adv-x="1067" 
d="M99 550v420q28 26 59 66q57 78 109.5 128t101.5 71q98 43 202 43q238 0 376 -211q34 -50 38 -54q-6 -12 -48 -85t-88 -151t-93 -153q183 -50 291 -118q-30 -153 -39 -221q-143 -228 -286 -323q23 210 23 262q0 7 -2 61q-47 14 -100 37q-41 18 -93 31q-2 0 -8.5 1.5
t-10.5 3t-10 2.5q132 239 166 322q32 82 32 133q0 58 -35 104q-36 44 -164 62q-48 6 -89 15q-11 -156 -11 -389q0 -226 15 -375l-24 -218q-17 -162 -26 -277q-159 -57 -264 -134q-5 112 -9 227t-7 235t-4 241t-2 244z" />
    <glyph glyph-name="registered" unicode="&#xae;" horiz-adv-x="1493" 
d="M616 869v-186h80q145 0 145 93t-138 93h-87zM432 256v741h331q268 0 268 -209q0 -160 -201 -207q40 -13 75 -46q17 -16 65.5 -97.5t101.5 -181.5h-218q-108 221 -145 258t-72 37q-7 0 -21 -3v-292h-184zM746 1187q-230 0 -394 -164q-165 -163 -165 -396q0 -232 164 -396
t395 -164q233 0 397 164q163 163 163 396q0 149 -77 283q-36 64 -88.5 116t-120.5 89q-133 72 -274 72zM746 1320q180 0 342 -90q83 -46 147.5 -110t109.5 -143q95 -164 95 -350q0 -287 -203 -490q-202 -204 -491 -204q-285 0 -489 204t-204 490q0 185 96 351
q94 165 259 254q163 88 338 88z" />
    <glyph glyph-name="copyright" unicode="&#xa9;" horiz-adv-x="1493" 
d="M908 542l187 -45q-81 -261 -344 -261q-176 0 -276 112q-102 111 -102 281q0 169 109 278q108 109 269 109q130 0 224 -71q93 -72 111 -180l-178 -27q-31 145 -165 145q-78 0 -122 -65q-45 -66 -45 -185q0 -265 169 -265q126 0 163 174zM746 1187q-230 0 -394 -164
q-165 -163 -165 -396q0 -232 164 -396t395 -164q233 0 397 164q163 163 163 396q0 149 -77 283q-36 64 -88.5 116t-120.5 89q-133 72 -274 72zM746 1320q180 0 342 -90q83 -46 147.5 -110t109.5 -143q95 -164 95 -350q0 -287 -203 -490q-202 -204 -491 -204q-285 0 -489 204
t-204 490q0 185 96 351q94 165 259 254q163 88 338 88z" />
    <glyph glyph-name="trademark" unicode="&#x2122;" horiz-adv-x="1771" 
d="M849 592v740h324l103 -405l108 405h315v-740h-201v522l-139 -522h-169l-137 522v-522h-204zM37 1156v176h727v-176h-258v-564h-214v564h-255z" />
    <glyph glyph-name="acute" unicode="&#xb4;" horiz-adv-x="683" 
d="M636 1270l-353 -324l-86 39l161 273z" />
    <glyph glyph-name="dieresis" unicode="&#xa8;" horiz-adv-x="683" 
d="M437 986q56 140 78 258q32 0 102 -15q71 -17 96 -40q26 -26 26 -59q0 -44 -39 -112q-41 -68 -86 -68q-43 0 -177 36zM41 990q41 94 80 256q101 -11 159 -34q59 -24 59 -79q0 -50 -40 -117q-41 -68 -93 -68q-49 0 -165 42z" />
    <glyph glyph-name="notequal" unicode="&#x2260;" horiz-adv-x="1365" 
d="M120 703v248h597l205 521h210l-202 -521h313v-248h-408l-93 -234h501v-248h-597l-206 -522h-213l205 522h-312v248h410l91 234h-501z" />
    <glyph glyph-name="AE" unicode="&#xc6;" horiz-adv-x="2944" 
d="M2560 -66l287 55l-202 -342q-387 -165 -613 -165q-212 0 -364 113t-152 378q0 152 68 345l-169 7q-104 -156 -144.5 -215t-101.5 -143q-39 -52 -86 -103.5t-113 -112.5q-120 -108 -264 -175q-141 -67 -286 -67q-146 0 -277 66q-38 126 -125 373l81 258q181 -196 308 -257
q126 -61 244 -61q134 0 282 85q49 28 103.5 76.5t113.5 117t126 161.5l-225 2q-122 0 -243 -6t-192 -16q232 255 269 287l110 3q162 0 421 -18q149 256 333 685q144 5 238 45q-81 -153 -156 -286t-150.5 -256.5t-124.5 -196.5l133 -11q89 204 144 295q341 302 484 385
q141 81 295 81q207 0 367 -128l-109 -358q-106 94 -260 167q-155 73 -298 73q-26 0 -43 -1q-122 -296 -175 -519q1 -1 217 -10l441 -27l124 -9l-417 -185q-223 -4 -436 -23q-35 -157 -35 -312q0 -25 5 -108q13 1 23 1l90 -2q52 0 187 14q117 12 267 40z" />
    <glyph glyph-name="Oslash" unicode="&#xd8;" horiz-adv-x="2368" 
d="M2338 1334v-221q-5 -3 -39 -21q-54 -27 -79 -44q120 -207 120 -430q0 -169 -59.5 -301.5t-206 -288.5t-357.5 -294t-446.5 -215t-347.5 -77q-213 0 -589 166q-165 -110 -290 -174v108q92 53 205 133q-208 197 -208 528q0 290 155.5 497.5t487.5 353t724 154.5l-59 -111
q-298 -29 -537.5 -134.5t-315.5 -221.5t-76 -281q0 -306 216 -502q186 135 561 463l443 381q-67 115 -85 226q195 207 407 299q100 -66 165 -143q131 100 211 150zM729 -115q233 -152 502 -152q323 0 521 212t198 452q0 74 -24 161q-105 38 -194 128q-463 -408 -1003 -801z
" />
    <glyph glyph-name="infinity" unicode="&#x221e;" horiz-adv-x="1195" 
d="M548 843q134 228 323 228q129 0 218 -92t89 -257t-89 -257t-218 -92q-189 0 -323 228q-49 -74 -129.5 -123t-157.5 -49q-109 0 -175.5 83.5t-66.5 209.5t67 209t175 83q81 0 157.5 -48.5t129.5 -122.5zM641 724q94 -148 139 -175.5t94 -27.5q79 0 118.5 62t39.5 142
q0 81 -40.5 140t-114.5 59q-112 0 -236 -200zM462 726q-100 141 -190 141q-46 0 -79.5 -37.5t-33.5 -102.5q0 -59 29.5 -101.5t83.5 -42.5q80 0 190 143z" />
    <glyph glyph-name="plusminus" unicode="&#xb1;" horiz-adv-x="1365" 
d="M120 -158v248h1125v-248h-1125zM120 650v248h438v439h248v-439h439v-248h-439v-437h-248v437h-438z" />
    <glyph glyph-name="lessequal" unicode="&#x2264;" horiz-adv-x="1365" 
d="M120 -193v248h1125v-248h-1125zM1244 476v-268l-1124 465v225l1124 467v-267l-785 -312z" />
    <glyph glyph-name="greaterequal" unicode="&#x2265;" horiz-adv-x="1365" 
d="M120 -193v248h1125v-248h-1125zM120 1097v268l1124 -465v-224l-1124 -468v267l784 312z" />
    <glyph glyph-name="yen" unicode="&#xa5;" horiz-adv-x="1280" 
d="M1270 1262l-372 -837h248l-33 -83h-253l-65 -146l-3 -42h294l-37 -87h-263l-27 -354q-221 -215 -289 -311l-28 665h-289l29 87h256l-1 42l-44 146h-240l29 83h185l-162 535q-11 39 -25 76q-10 27 -11 31q-78 -13 -143 -15l122 221h635q-95 -77 -206 -139l51 -238
q62 -297 116 -424l305 786z" />
    <glyph glyph-name="mu" unicode="&#xb5;" horiz-adv-x="1259" 
d="M151 1062h279v-481q0 -209 48 -294.5t150 -85.5q69 0 121.5 47.5t68 118t15.5 211.5v484h284v-1062h-262v128q-82 -154 -213 -154q-66 0 -114.5 31.5t-97.5 122.5v-535h-279v1469z" />
    <glyph glyph-name="partialdiff" unicode="&#x2202;" 
d="M375 1123l-137 84q51 147 154 215.5t216 68.5q156 0 260.5 -132t104.5 -417q0 -247 -77.5 -488.5t-222.5 -360t-321 -118.5q-142 0 -227 94t-85 259q0 260 204 437.5t539 177.5q12 0 39 -1q0 179 -58.5 273t-160.5 94q-137 0 -228 -186zM810 758q-29 1 -40 1
q-229 0 -365 -124.5t-136 -296.5q0 -70 39.5 -121.5t101.5 -51.5q137 0 251 160t149 433z" />
    <glyph glyph-name="summation" unicode="&#x2211;" horiz-adv-x="1460" 
d="M139 1491h1237v-164h-988l607 -775l-649 -822h1040v-161h-1264v187l620 788l-603 772v175z" />
    <glyph glyph-name="product" unicode="&#x220f;" horiz-adv-x="1685" 
d="M161 1491h1362v-1922h-191v1748h-978v-1748h-193v1922z" />
    <glyph glyph-name="pi" unicode="&#x3c0;" horiz-adv-x="1408" 
d="M51 1063h1331v-202h-169v-861h-288v861h-415v-861h-292v861h-167v202z" />
    <glyph glyph-name="integral" unicode="&#x222b;" horiz-adv-x="561" 
d="M201 948l13 423q6 196 26.5 273t40.5 118.5t65 71t89 29.5q54 0 89.5 -34.5t35.5 -72.5q0 -44 -25.5 -74t-66.5 -30q-35 0 -76 36q-23 20 -40 20q-40 0 -40 -63q0 -43 9 -146q37 -410 37 -683q0 -50 -12 -452.5t-77.5 -493t-149.5 -90.5q-49 0 -84 32t-35 89q0 43 25 71
t65 28t70 -33q28 -31 48 -31q39 0 39 61q0 42 -9 120q-37 315 -37 831z" />
    <glyph glyph-name="ordfeminine" unicode="&#xaa;" horiz-adv-x="640" 
d="M243 1073l11 -189q70 78 105 137q-31 36 -116 52zM231 1244q17 -4 121 -21q114 -20 154 -38q42 -19 68 -63q24 -45 24 -140l-4 -170q0 -26 9 -82q-63 -9 -244 -56q13 95 13 207q-73 -77 -199 -197q-79 19 -128 40l-11 77t-11 135q0 89 41 153q41 62 167 155z" />
    <glyph glyph-name="ordmasculine" unicode="&#xba;" horiz-adv-x="640" 
d="M270 1116q-27 -42 -27 -96q0 -137 151 -170q13 48 13 102q0 131 -137 164zM258 1244q93 -9 172 -9q4 0 133 3l-38 -60q101 -41 101 -172q0 -68 -27 -124q-27 -58 -58 -81q-27 -22 -109 -62q-19 -9 -37 -21q-18 -11 -35 -21q-156 1 -251 75q-94 73 -94 158q0 169 243 314z
" />
    <glyph glyph-name="Omega" unicode="&#x2126;" horiz-adv-x="1749" 
d="M551 206q-385 162 -385 605q0 301 187 496.5t506 195.5q218 0 370 -66t261 -232.5t109 -393.5q0 -231 -106 -379.5t-276 -223.5l330 23h72v-231h-642v243q306 147 306 542q0 243 -113 371t-296 128q-188 0 -292.5 -141.5t-104.5 -351.5q0 -184 78.5 -332.5t233.5 -215.5
v-243h-645v230h98z" />
    <glyph glyph-name="ae" unicode="&#xe6;" horiz-adv-x="1387" 
d="M380 221q162 201 206 282q-89 68 -219 85q16 -81 16 -214q0 -38 -1 -76t-2 -77zM884 373l188 2q1 30 1 50q0 189 -168 189l-2 -53q-6 -128 -19 -188zM337 838q61 -2 170 -22.5t258 -57.5q27 32 96 80q305 -28 390 -84q85 -55 85 -207q0 -38 -9 -127l-7 -68
q-79 -17 -143 -39q-92 -29 -183 -29q-47 0 -97 6q10 -46 79 -81q68 -36 150 -36q73 0 168 40q-60 -130 -164 -199q-106 -72 -225 -72q-127 0 -222 78q-94 78 -94 241v34l-179 -161q-101 -90 -152 -174l-153 40q-20 125 -29 206.5t-9 160.5q0 66 27 147t70 138q46 62 173 186
z" />
    <glyph glyph-name="oslash" unicode="&#xf8;" 
d="M639 474l-197 -224q100 -76 186 -91q25 100 25 193q0 80 -14 122zM416 660q-52 -80 -52 -186q0 -64 24 -138l202 230q-99 81 -174 94zM407 830q149 -15 316 -15q71 0 91 4l55 62l78 -56l-105 -119q120 -84 120 -261q0 -102 -38 -193q-39 -89 -80 -129q-40 -37 -125 -82
q-76 -39 -111 -63q-26 -18 -50 -33q-180 6 -313 81l-71 -81l-79 55l70 80q-124 109 -124 239q0 277 366 511z" />
    <glyph glyph-name="questiondown" unicode="&#xbf;" horiz-adv-x="896" 
d="M854 -283l-199 -270q-330 13 -494 113q-82 50 -123.5 135t-42.5 204q83 134 299 240q218 105 404 105q11 0 87 -2v-7q-161 -72 -263 -167q-105 -98 -105 -178q0 -57 39 -94q38 -38 153 -59q113 -22 192 -22q3 0 53 2zM624 377l-155 32q-103 14 -119 33q-18 20 -18 81
q0 72 45 142q45 69 104 69q70 0 263 -57q-81 -121 -120 -300z" />
    <glyph glyph-name="exclamdown" unicode="&#xa1;" horiz-adv-x="576" 
d="M361 -570q-90 1 -204 21q-115 20 -137 51q-24 31 -24 81q0 218 166 580q99 62 285 129q-90 -503 -90 -727q0 -66 4 -135zM441 389q-196 14 -252 30q-55 16 -55 90q0 75 54 151q53 75 105 75q77 0 236 -65q-69 -149 -88 -281z" />
    <glyph glyph-name="logicalnot" unicode="&#xac;" horiz-adv-x="1365" 
d="M120 706v248h1125v-735h-248v487h-877z" />
    <glyph glyph-name="radical" unicode="&#x221a;" horiz-adv-x="1131" 
d="M1053 1869h74l-312 -1947l-496 1021l-198 -91l-34 64l301 151l405 -823z" />
    <glyph glyph-name="florin" unicode="&#x192;" horiz-adv-x="917" 
d="M256 815l58 278q199 202 376 202q64 0 133.5 -22t143.5 -64q-3 -31 -3 -79q0 -36 3 -56q-47 -70 -106 -179q-121 147 -216 204l-35 -172l-34 -121l335 -11l-69 -202l-301 -5l-55 -266l-93 -475l-39 -189q-74 -100 -177 -161q-104 -62 -204 -62q-120 0 -272 80v140
q64 105 101 174q100 -132 217 -196l60 309l131 641h-152z" />
    <glyph glyph-name="approxequal" unicode="&#x2248;" horiz-adv-x="1344" 
d="M1232 539v-254q-161 -143 -318 -143q-72 0 -135 25q-70 25 -159 70q-133 65 -201 65q-151 0 -308 -151v256q164 141 326 141q99 0 271 -84q152 -75 228 -75q134 0 296 150zM1232 1022v-254q-160 -144 -318 -144q-71 0 -136 25q-76 29 -158 71q-133 65 -201 65
q-151 0 -308 -151v255q163 142 326 142q100 0 271 -85q153 -74 228 -74q134 0 296 150z" />
    <glyph glyph-name="Delta" unicode="&#x2206;" horiz-adv-x="1259" 
d="M1229 0h-1200l628 1387zM993 82l-399 967l-440 -967h839z" />
    <glyph glyph-name="guillemotleft" unicode="&#xab;" horiz-adv-x="875" 
d="M93 412l334 282l123 9l-305 -291l146 -328l-200 -13zM364 423l297 287l211 15l-392 -331l232 -311l-205 -8z" />
    <glyph glyph-name="guillemotright" unicode="&#xbb;" horiz-adv-x="896" 
d="M415 411l-230 310l203 10l142 -350l-298 -287l-209 -13zM652 397l-148 324l200 16l98 -347l-335 -280l-122 -9z" />
    <glyph glyph-name="ellipsis" unicode="&#x2026;" horiz-adv-x="1856" 
d="M840 355q176 -21 228 -45q51 -24 51 -89q0 -78 -50 -149q-51 -72 -113 -72q-82 0 -219 46q68 141 103 309zM1461 355q172 -19 226 -44q52 -24 52 -90q0 -77 -49 -148q-49 -73 -114 -73q-77 0 -219 46q70 141 104 309zM220 355q174 -21 228 -44q51 -24 51 -90
q0 -78 -50 -149q-51 -72 -113 -72q-82 0 -219 46q68 141 103 309z" />
    <glyph glyph-name="nonbreakingspace" unicode="&#xa0;" horiz-adv-x="672" 
 />
    <glyph glyph-name="Agrave" unicode="&#xc0;" horiz-adv-x="2731" 
d="M528 193q-78 -111 -78 -221q0 -115 77 -168t183 -53q81 0 222 21q5 9 117 128q102 108 309 346q-494 -17 -830 -53zM1670 429q77 -9 217 -34.5t304 -59.5q-39 318 -124 677q-110 -199 -397 -583zM1368 1073q10 23 26 48q30 54 50 92q339 107 634 107q94 0 179 -20
q81 -19 132 -67q50 -46 78 -138q29 -92 45 -223l23 -180l67 -465q40 -285 84 -442q-318 -93 -451 -156q0 113 -32 614q-187 12 -254 12q-72 -3 -189.5 -9.5t-219.5 -12.5q-380 -419 -613 -555q-235 -137 -441 -137q-200 0 -328 100q-129 99 -129 207q0 122 135 272
q133 148 353 261q219 111 521 111q72 0 137.5 -4t148 -13t167.5 -21l201 291q59 86 236 393q-118 -3 -261.5 -20t-298.5 -45zM2086 1700l160 -261l-105 -43l-316 314z" />
    <glyph glyph-name="Atilde" unicode="&#xc3;" horiz-adv-x="2731" 
d="M528 193q-78 -111 -78 -221q0 -115 77 -168t183 -53q81 0 222 21q5 9 117 128q102 108 309 346q-494 -17 -830 -53zM1670 429q77 -9 217 -34.5t304 -59.5q-39 318 -124 677q-110 -199 -397 -583zM1368 1073q10 23 26 48q30 54 50 92q339 107 634 107q94 0 179 -20
q81 -19 132 -67q50 -46 78 -138q29 -92 45 -223l23 -180l67 -465q40 -285 84 -442q-318 -93 -451 -156q0 113 -32 614q-187 12 -254 12q-72 -3 -189.5 -9.5t-219.5 -12.5q-380 -419 -613 -555q-235 -137 -441 -137q-200 0 -328 100q-129 99 -129 207q0 122 135 272
q133 148 353 261q219 111 521 111q72 0 137.5 -4t148 -13t167.5 -21l201 291q59 86 236 393q-118 -3 -261.5 -20t-298.5 -45zM2412 1688l105 -42q-37 -76 -102 -161q-68 -86 -106 -86q-14 0 -149 47l-196 75q-9 -7 -91 -121l-75 31q136 216 196 257q35 -7 119 -35
q60 -20 83 -26q55 -16 89 -28q28 -11 43 -11q20 0 42 37q6 11 42 63z" />
    <glyph glyph-name="Otilde" unicode="&#xd5;" horiz-adv-x="2368" 
d="M1430 1205l-65 -107q-322 -38 -553 -137q-235 -100 -312 -216q-78 -115 -78 -285q0 -326 242 -527t583 -201q336 0 514 237q179 238 179 439q0 45 -22 142q-257 116 -315 512q319 241 478 259q124 -101 192 -272q69 -172 69 -323q0 -329 -251 -637q-249 -306 -592 -475
q-339 -169 -626 -169q-328 0 -579 196q-252 195 -252 550q0 231 87 400q85 168 274 306q95 69 208 124t244 97q264 84 575 87zM1893 1688l105 -42q-37 -76 -102 -161q-68 -86 -106 -86q-14 0 -149 47l-196 75q-9 -7 -91 -121l-75 31q136 216 196 257q35 -7 119 -35
q60 -20 83 -26q55 -16 89 -28q28 -11 43 -11q20 0 42 37q6 11 42 63z" />
    <glyph glyph-name="OE" unicode="&#x152;" horiz-adv-x="2923" 
d="M2958 1208l-105 -345q-322 215 -612 222q-114 -280 -183 -526l813 -44l-407 -192l-482 -18q-30 -187 -30 -320q0 -48 9 -112l558 66q191 23 306 47l-172 -323q-406 -177 -690 -177q-361 0 -448 340q-211 -175 -469 -259q-258 -85 -497 -85q-251 0 -385 144
q-135 144 -135 375q0 162 69 309q67 145 230 306q161 160 328 235q90 41 176.5 67t169.5 40l-40 -129q-207 -53 -370 -190q-83 -71 -164.5 -160t-158.5 -192q93 -232 274 -378q181 -148 375 -148q227 0 411 108q93 54 155.5 119.5t95.5 142.5q67 153 67 364q0 303 -131 446
q-132 142 -335 142q-301 0 -750 -229l-161 55q781 416 1253 416q416 0 478 -287q100 84 185 143.5t144 87.5q122 57 244 57q179 0 384 -118z" />
    <glyph glyph-name="oe" unicode="&#x153;" horiz-adv-x="1387" 
d="M915 379h173q6 32 6 60q0 84 -47 131q-49 46 -107 47zM409 637q-42 -120 -42 -196q0 -128 94 -195q95 -70 191 -77l-5 260q-65 179 -238 208zM990 820q44 -10 96 -18q176 -27 223 -78q46 -50 46 -119l-7 -131l-5 -90q-2 -18 -11 -27q-10 -10 -76 -34q-64 -25 -109 -31
q-41 -7 -123 -7q-27 0 -79 2q79 -112 220 -112q88 0 168 65q-6 -32 -91 -142q-85 -111 -150 -132q-63 -22 -149 -22q-78 0 -127 23q-52 24 -114 80q-90 -69 -103 -78l-61 -42q-314 83 -405 175q-93 92 -93 238q0 292 358 476l114 3q251 0 367 -146q74 86 111 147z" />
    <glyph glyph-name="endash" unicode="&#x2013;" horiz-adv-x="1024" 
d="M-12 393v101h1048v-101h-1048z" />
    <glyph glyph-name="emdash" unicode="&#x2014;" horiz-adv-x="2048" 
d="M-12 393v101h2072v-101h-2072z" />
    <glyph glyph-name="quotedblleft" unicode="&#x201c;" horiz-adv-x="725" 
d="M252 1055l187 212l81 13l-303 -461l-179 -32q29 58 214 268zM427 1023l181 267l75 11l-204 -481l-158 -21q20 96 106 224z" />
    <glyph glyph-name="quotedblright" unicode="&#x201d;" horiz-adv-x="747" 
d="M49 813l204 482l158 18q-19 -93 -96 -206l-192 -285zM214 836l302 459l182 35q-54 -84 -115 -153l-147 -169l-148 -160z" />
    <glyph glyph-name="quoteleft" unicode="&#x2018;" horiz-adv-x="491" 
d="M48 813l300 471l89 14l-241 -468z" />
    <glyph glyph-name="quoteright" unicode="&#x2019;" horiz-adv-x="491" 
d="M48 816l244 466l149 17l-306 -473z" />
    <glyph glyph-name="divide" unicode="&#xf7;" horiz-adv-x="1365" 
d="M827 172q0 -61 -43 -104t-103 -43q-61 0 -104 43t-43 104q0 60 43 103t104 43q60 0 103 -43t43 -103zM120 468v234h1125v-234h-1125zM824 1006q0 -60 -43 -102q-43 -43 -103 -43t-102 43q-43 42 -43 102t43 103q44 42 102 42q60 0 103 -42q43 -43 43 -103z" />
    <glyph glyph-name="lozenge" unicode="&#x25ca;" horiz-adv-x="1012" 
d="M549 1422l418 -713l-418 -709h-111l-391 709l391 713h111zM495 1325l-340 -616l340 -615l359 615z" />
    <glyph glyph-name="ydieresis" unicode="&#xff;" 
d="M83 570v207q220 7 365 61l-14 -223l-13 -258q94 153 125 232q33 83 57 231q122 -10 348 -27q-18 -82 -52 -396l-31 -327q-14 -141 -31 -202q-21 -67 -83 -158q-67 -98 -191 -228q-315 29 -484 148l-57 137q45 73 123 174q54 -66 157 -91q104 -26 249 -48q-20 232 -20 365
q0 82 6 194l-226 -291q-37 -46 -45 -90q-80 10 -151 42q-9 77 -15 162q-6 63 -11 189q-5 104 -6 197zM584 1037q56 140 78 258q32 0 102 -15q71 -17 96 -40q26 -26 26 -59q0 -44 -39 -112q-41 -68 -86 -68q-43 0 -177 36zM188 1041q41 94 80 256q101 -11 159 -34
q59 -24 59 -79q0 -50 -40 -117q-41 -68 -93 -68q-49 0 -165 42z" />
    <glyph glyph-name="Ydieresis" unicode="&#x178;" horiz-adv-x="2304" 
d="M1435 -177l-134 -213q-358 -165 -591 -165q-122 0 -209 37q-89 38 -89 108q0 48 27 95q23 42 91 118q75 84 138.5 159.5t115.5 142.5q-87 690 -192 978q-113 -21 -254 -78t-297 -146l26 123q86 57 210.5 131.5t208.5 117.5q181 94 328 94q133 0 235 -50q56 -127 93 -315
q36 -187 36 -231q0 -20 -29 -168l-66 -324q168 123 262 201q101 83 135 117q30 29 200 217q117 129 205 202q94 76 233 161q171 107 282 189l115 -96q-179 -143 -318.5 -267t-242.5 -230q-213 -217 -433 -375q-222 -158 -376 -232q-160 -77 -233 -132q-74 -55 -172 -177
q54 -15 265 -15q113 0 430 23zM1697 1480q56 140 78 258q32 0 102 -15q71 -17 96 -40q26 -26 26 -59q0 -44 -39 -112q-41 -68 -86 -68q-43 0 -177 36zM1301 1484q41 94 80 256q101 -11 159 -34q59 -24 59 -79q0 -50 -40 -117q-41 -68 -93 -68q-49 0 -165 42z" />
    <glyph glyph-name="fraction" unicode="&#x2215;" horiz-adv-x="85" 
d="M-405 -98l714 1320l156 30q-24 -78 -63 -149l-84 -157l-622 -960q-93 -75 -101 -84z" />
    <glyph glyph-name="currency" unicode="&#xa4;" horiz-adv-x="1429" 
d="M958 989l135 137l161 -163l-134 -136q68 -113 68 -243q0 -129 -68 -243l134 -132l-161 -162l-134 132q-110 -68 -244 -68q-138 0 -244 68l-132 -132l-164 162l134 132q-67 114 -67 243q0 121 67 243l-134 136l160 163l136 -136q117 67 244 67q117 0 243 -68zM960 584
q0 101 -72 173t-173 72t-173 -72t-72 -173t72 -173t173 -72t173 72t72 173z" />
    <glyph glyph-name="guilsinglleft" unicode="&#x2039;" horiz-adv-x="533" 
d="M72 412l334 282l123 9l-305 -291l146 -328l-200 -13z" />
    <glyph glyph-name="guilsinglright" unicode="&#x203a;" horiz-adv-x="555" 
d="M320 397l-148 324l201 16l98 -347l-336 -280l-122 -9z" />
    <glyph glyph-name="fi" unicode="&#xf001;" horiz-adv-x="1344" 
d="M1077 1257q68 0 117 -49t49 -117q0 -69 -48 -117q-49 -49 -118 -49t-117 49q-49 49 -49 117q0 71 50 119q50 47 116 47zM189 805v186q119 177 218 236q100 59 221 59q80 0 162 -27l38 -124q-57 -202 -77 -250q-98 137 -228 190q-9 -58 -12 -263l163 -13q123 -10 220 -10
q165 0 324 40q-4 -108 -4 -204q0 -101 24 -625q-264 -35 -364 -66q11 170 14 403q3 160 11 343l-183 -74q-69 -28 -185 -28q-8 -160 -8 -191v-111l-1 -69q0 -103 14 -302q-204 -40 -358 -95q10 73 10 267l-2 267q0 46 3 223l-167 -10z" />
    <glyph glyph-name="fl" unicode="&#xf002;" horiz-adv-x="1365" 
d="M181 965v31q21 24 60 77q49 67 97.5 114t92.5 67q87 40 168 40q107 0 199 -26l28 -132l-70 -224q-137 135 -245 172q-9 -121 -9 -219v-52q84 -6 136 -6q28 0 179 6l-53 -201l-245 -24q-5 -337 -5 -310q0 -118 11 -374q-211 -45 -356 -91q11 228 11 282l-3 160
q0 111 4 314q-118 -10 -168 -12l168 242q-1 21 -1 38zM885 1195l258 75l90 27l-22 -404l-14 -293l-20 -333l168 -109q-199 -208 -202 -223q-152 35 -210 125q-59 91 -59 194q0 25 1 40q6 183 9.5 359t3.5 289q0 67 -3 253z" />
    <glyph glyph-name="daggerdbl" unicode="&#x2021;" horiz-adv-x="896" 
d="M354 1279l207 22q-36 -204 -37 -403l87 -1q208 0 269 32q-129 -183 -186 -201q-61 -19 -178 -32q-4 -145 -4 -207l4 -375l78 -1q185 0 280 29q-113 -158 -167 -188q-29 -15 -73.5 -24.5t-121.5 -19.5v-455q-74 -35 -149 -39l-9 515q-182 -23 -269 -23q-3 0 -53 2
q36 112 55 190l267 14l6 609q-169 -22 -319 -22q44 153 51 197q163 1 262 6q4 180 4 265q0 63 -4 110z" />
    <glyph glyph-name="periodcentered" unicode="&#x2219;" horiz-adv-x="512" 
d="M167 761q177 -21 228 -45t51 -89q0 -75 -49 -148t-114 -73q-77 0 -219 46q70 142 103 309z" />
    <glyph glyph-name="quotesinglbase" unicode="&#x201a;" horiz-adv-x="512" 
d="M62 -136l244 472l148 17l-303 -472z" />
    <glyph glyph-name="quotedblbase" unicode="&#x201e;" horiz-adv-x="725" 
d="M44 -160l217 468l152 25q-3 -53 -24 -91q-16 -28 -155 -230q-72 -104 -92 -148zM216 -142l305 453l157 28q-28 -72 -37 -87q-12 -18 -54 -65l-290 -324z" />
    <glyph glyph-name="perthousand" unicode="&#x2030;" horiz-adv-x="2475" 
d="M1996 465q-42 -60 -42 -149q0 -167 201 -212q80 85 80 173q0 185 -239 188zM2243 -14l-24 -21q-64 -3 -107 -3q-407 0 -407 330q0 152 114 248q113 95 272 95q161 0 262 -80q99 -79 99 -205q0 -182 -209 -364zM1202 465q-41 -65 -41 -149q0 -167 201 -212q80 85 80 173
q0 185 -240 188zM1450 -14l-24 -21q-64 -3 -107 -3q-407 0 -407 330q0 104 48 173q46 68 130 120q83 50 208 50q110 0 197 -42q86 -42 125 -99t39 -144q0 -182 -209 -364zM309 1074q-41 -61 -41 -149q0 -167 201 -212q80 88 80 173q0 185 -240 188zM533 574q-69 -3 -108 -3
q-406 0 -406 330q0 152 113 248q113 95 273 95q161 0 261 -79t100 -206q0 -187 -233 -385zM394 -98l714 1320l156 30q-54 -169 -133 -289l-636 -977q-97 -77 -101 -84z" />
    <glyph glyph-name="Acircumflex" unicode="&#xc2;" horiz-adv-x="2731" 
d="M528 193q-78 -111 -78 -221q0 -115 77 -168t183 -53q81 0 222 21q5 9 117 128q102 108 309 346q-494 -17 -830 -53zM1670 429q77 -9 217 -34.5t304 -59.5q-39 318 -124 677q-110 -199 -397 -583zM1368 1073q10 23 26 48q30 54 50 92q339 107 634 107q94 0 179 -20
q81 -19 132 -67q50 -46 78 -138q29 -92 45 -223l23 -180l67 -465q40 -285 84 -442q-318 -93 -451 -156q0 113 -32 614q-187 12 -254 12q-72 -3 -189.5 -9.5t-219.5 -12.5q-380 -419 -613 -555q-235 -137 -441 -137q-200 0 -328 100q-129 99 -129 207q0 122 135 272
q133 148 353 261q219 111 521 111q72 0 137.5 -4t148 -13t167.5 -21l201 291q59 86 236 393q-118 -3 -261.5 -20t-298.5 -45zM2099 1605l-168 -201l-83 36l227 274l178 4l202 -243l-143 -71z" />
    <glyph glyph-name="Ecircumflex" unicode="&#xca;" horiz-adv-x="1536" 
d="M834 1320q124 -5 226.5 -36.5t179.5 -88.5q159 -115 159 -261q0 -24 -18 -119l-23 -135q-334 338 -643 353q-40 -76 -40 -175q0 -167 104 -280t291 -125q-16 -42 -82 -152q-21 -35 -41 -72q-48 -20 -59 -20q-67 0 -187 41q-118 40 -189 97q-127 -163 -127 -290
q0 -285 639 -285q112 0 217 38q99 36 306 172q-36 -102 -59.5 -163.5t-53 -130.5t-52.5 -116q-211 -126 -560 -126q-346 0 -558 116q-213 115 -213 321q0 155 113 295q111 138 310 247q-24 72 -24 137q0 215 107 431q106 212 277 327zM959 1605l-168 -201l-83 36l227 274
l178 4l202 -243l-143 -71z" />
    <glyph glyph-name="Aacute" unicode="&#xc1;" horiz-adv-x="2731" 
d="M528 193q-78 -111 -78 -221q0 -115 77 -168t183 -53q81 0 222 21q5 9 117 128q102 108 309 346q-494 -17 -830 -53zM1670 429q77 -9 217 -34.5t304 -59.5q-39 318 -124 677q-110 -199 -397 -583zM1368 1073q10 23 26 48q30 54 50 92q339 107 634 107q94 0 179 -20
q81 -19 132 -67q50 -46 78 -138q29 -92 45 -223l23 -180l67 -465q40 -285 84 -442q-318 -93 -451 -156q0 113 -32 614q-187 12 -254 12q-72 -3 -189.5 -9.5t-219.5 -12.5q-380 -419 -613 -555q-235 -137 -441 -137q-200 0 -328 100q-129 99 -129 207q0 122 135 272
q133 148 353 261q219 111 521 111q72 0 137.5 -4t148 -13t167.5 -21l201 291q59 86 236 393q-118 -3 -261.5 -20t-298.5 -45zM2323 1721l-353 -324l-86 39l161 273z" />
    <glyph glyph-name="Edieresis" unicode="&#xcb;" horiz-adv-x="1536" 
d="M834 1320q124 -5 226.5 -36.5t179.5 -88.5q159 -115 159 -261q0 -24 -18 -119l-23 -135q-334 338 -643 353q-40 -76 -40 -175q0 -167 104 -280t291 -125q-16 -42 -82 -152q-21 -35 -41 -72q-48 -20 -59 -20q-67 0 -187 41q-118 40 -189 97q-127 -163 -127 -290
q0 -285 639 -285q112 0 217 38q99 36 306 172q-36 -102 -59.5 -163.5t-53 -130.5t-52.5 -116q-211 -126 -560 -126q-346 0 -558 116q-213 115 -213 321q0 155 113 295q111 138 310 247q-24 72 -24 137q0 215 107 431q106 212 277 327zM1094 1437q56 140 78 258q32 0 102 -15
q71 -17 96 -40q26 -26 26 -59q0 -44 -39 -112q-41 -68 -86 -68q-43 0 -177 36zM698 1441q41 94 80 256q101 -11 159 -34q59 -24 59 -79q0 -50 -40 -117q-41 -68 -93 -68q-49 0 -165 42z" />
    <glyph glyph-name="Egrave" unicode="&#xc8;" horiz-adv-x="1536" 
d="M834 1320q124 -5 226.5 -36.5t179.5 -88.5q159 -115 159 -261q0 -24 -18 -119l-23 -135q-334 338 -643 353q-40 -76 -40 -175q0 -167 104 -280t291 -125q-16 -42 -82 -152q-21 -35 -41 -72q-48 -20 -59 -20q-67 0 -187 41q-118 40 -189 97q-127 -163 -127 -290
q0 -285 639 -285q112 0 217 38q99 36 306 172q-36 -102 -59.5 -163.5t-53 -130.5t-52.5 -116q-211 -126 -560 -126q-346 0 -558 116q-213 115 -213 321q0 155 113 295q111 138 310 247q-24 72 -24 137q0 215 107 431q106 212 277 327zM1007 1700l160 -261l-105 -43l-316 314
z" />
    <glyph glyph-name="Iacute" unicode="&#xcd;" horiz-adv-x="1707" 
d="M1459 1396l-87 40l161 273l278 12zM1820 1245q-60 -116 -168 -426q-142 -404 -255.5 -672t-204.5 -397t-248 -272q-371 80 -558 202t-354 455l193 293q119 -184 225 -276t330.5 -181.5t392.5 -109.5q181 485 273 859q61 248 94 311t82.5 125t134.5 110z" />
    <glyph glyph-name="Icircumflex" unicode="&#xce;" horiz-adv-x="1707" 
d="M1419 1404l-83 36l226 273l179 5l202 -243l-143 -71l-214 200zM1820 1245q-60 -116 -168 -426q-142 -404 -255.5 -672t-204.5 -397t-248 -272q-371 80 -558 202t-354 455l193 293q119 -184 225 -276t330.5 -181.5t392.5 -109.5q181 485 273 859q61 248 94 311t82.5 125
t134.5 110z" />
    <glyph glyph-name="Idieresis" unicode="&#xcf;" horiz-adv-x="1707" 
d="M1325 1440q43 101 80 257q99 -11 158.5 -34.5t59.5 -79.5q0 -58 -43.5 -121t-89.5 -63q-50 0 -165 41zM1721 1437q56 139 77 258q32 0 102.5 -15.5t96.5 -40t26 -58.5q0 -45 -39.5 -112.5t-85.5 -67.5q-43 0 -177 36zM1820 1245q-60 -116 -168 -426
q-142 -404 -255.5 -672t-204.5 -397t-248 -272q-371 80 -558 202t-354 455l193 293q119 -184 225 -276t330.5 -181.5t392.5 -109.5q181 485 273 859q61 248 94 311t82.5 125t134.5 110z" />
    <glyph glyph-name="Igrave" unicode="&#xcc;" horiz-adv-x="1707" 
d="M1734 1439l-105 -43l-316 314l261 -10zM1820 1245q-60 -116 -168 -426q-142 -404 -255.5 -672t-204.5 -397t-248 -272q-371 80 -558 202t-354 455l193 293q119 -184 225 -276t330.5 -181.5t392.5 -109.5q181 485 273 859q61 248 94 311t82.5 125t134.5 110z" />
    <glyph glyph-name="Oacute" unicode="&#xd3;" horiz-adv-x="2368" 
d="M1430 1205l-65 -107q-322 -38 -553 -137q-235 -100 -312 -216q-78 -115 -78 -285q0 -326 242 -527t583 -201q336 0 514 237q179 238 179 439q0 45 -22 142q-257 116 -315 512q319 241 478 259q124 -101 192 -272q69 -172 69 -323q0 -329 -251 -637q-249 -306 -592 -475
q-339 -169 -626 -169q-328 0 -579 196q-252 195 -252 550q0 231 87 400q85 168 274 306q95 69 208 124t244 97q264 84 575 87zM1901 1721l-353 -324l-86 39l161 273z" />
    <glyph glyph-name="Ocircumflex" unicode="&#xd4;" horiz-adv-x="2368" 
d="M1430 1205l-65 -107q-322 -38 -553 -137q-235 -100 -312 -216q-78 -115 -78 -285q0 -326 242 -527t583 -201q336 0 514 237q179 238 179 439q0 45 -22 142q-257 116 -315 512q319 241 478 259q124 -101 192 -272q69 -172 69 -323q0 -329 -251 -637q-249 -306 -592 -475
q-339 -169 -626 -169q-328 0 -579 196q-252 195 -252 550q0 231 87 400q85 168 274 306q95 69 208 124t244 97q264 84 575 87zM1555 1605l-168 -201l-83 36l227 274l178 4l202 -243l-143 -71z" />
    <glyph glyph-name="Ograve" unicode="&#xd2;" horiz-adv-x="2368" 
d="M1430 1205l-65 -107q-322 -38 -553 -137q-235 -100 -312 -216q-78 -115 -78 -285q0 -326 242 -527t583 -201q336 0 514 237q179 238 179 439q0 45 -22 142q-257 116 -315 512q319 241 478 259q124 -101 192 -272q69 -172 69 -323q0 -329 -251 -637q-249 -306 -592 -475
q-339 -169 -626 -169q-328 0 -579 196q-252 195 -252 550q0 231 87 400q85 168 274 306q95 69 208 124t244 97q264 84 575 87zM1543 1700l160 -261l-105 -43l-316 314z" />
    <glyph glyph-name="Uacute" unicode="&#xda;" horiz-adv-x="2304" 
d="M1689 955l345 211l296 68q-219 -963 -219 -1440q0 -42 1 -75q-137 -101 -454 -250q5 328 144 1002q-191 -408 -581 -704q-390 -297 -771 -297q-116 0 -209 28q-94 28 -150 66t-75 74q-20 38 -20 98q0 148 104 294q34 48 111.5 135t206 220.5t267.5 270.5q168 167 223 261
q20 36 30 47q8 11 8 16q0 10 -30 19q-34 8 -68 8q-132 0 -711 -240l87 198q130 79 228.5 134t187 98.5t140.5 62.5q174 64 316 64q301 0 301 -120q0 -90 -140 -257q-44 -53 -111.5 -118.5t-160 -146t-213.5 -177.5q-75 -59 -130 -105t-64 -55q-41 -38 -158 -161
q-116 -122 -124 -136t-8 -23q0 -45 127 -139q66 -48 153.5 -71t197.5 -23q390 0 642 318q251 319 281 845zM2026 1721l-353 -324l-86 39l161 273z" />
    <glyph glyph-name="Ucircumflex" unicode="&#xdb;" horiz-adv-x="2304" 
d="M1689 955l345 211l296 68q-219 -963 -219 -1440q0 -42 1 -75q-137 -101 -454 -250q5 328 144 1002q-191 -408 -581 -704q-390 -297 -771 -297q-116 0 -209 28q-94 28 -150 66t-75 74q-20 38 -20 98q0 148 104 294q34 48 111.5 135t206 220.5t267.5 270.5q168 167 223 261
q20 36 30 47q8 11 8 16q0 10 -30 19q-34 8 -68 8q-132 0 -711 -240l87 198q130 79 228.5 134t187 98.5t140.5 62.5q174 64 316 64q301 0 301 -120q0 -90 -140 -257q-44 -53 -111.5 -118.5t-160 -146t-213.5 -177.5q-75 -59 -130 -105t-64 -55q-41 -38 -158 -161
q-116 -122 -124 -136t-8 -23q0 -45 127 -139q66 -48 153.5 -71t197.5 -23q390 0 642 318q251 319 281 845zM1765 1605l-168 -201l-83 36l227 274l178 4l202 -243l-143 -71z" />
    <glyph glyph-name="Ugrave" unicode="&#xd9;" horiz-adv-x="2304" 
d="M1689 955l345 211l296 68q-219 -963 -219 -1440q0 -42 1 -75q-137 -101 -454 -250q5 328 144 1002q-191 -408 -581 -704q-390 -297 -771 -297q-116 0 -209 28q-94 28 -150 66t-75 74q-20 38 -20 98q0 148 104 294q34 48 111.5 135t206 220.5t267.5 270.5q168 167 223 261
q20 36 30 47q8 11 8 16q0 10 -30 19q-34 8 -68 8q-132 0 -711 -240l87 198q130 79 228.5 134t187 98.5t140.5 62.5q174 64 316 64q301 0 301 -120q0 -90 -140 -257q-44 -53 -111.5 -118.5t-160 -146t-213.5 -177.5q-75 -59 -130 -105t-64 -55q-41 -38 -158 -161
q-116 -122 -124 -136t-8 -23q0 -45 127 -139q66 -48 153.5 -71t197.5 -23q390 0 642 318q251 319 281 845zM1752 1700l160 -261l-105 -43l-316 314z" />
    <glyph glyph-name="dotlessi" unicode="&#x131;" horiz-adv-x="640" 
d="M20 562l27 125q201 33 461 156v-176l-3 -75q0 -15 1 -27q1 -33 1 -91q0 -26 1 -42l7 -176q2 -57 15 -256q-206 -36 -358 -54q14 126 14 375l-4 251q-42 -17 -90 -17q-36 0 -72 7z" />
    <glyph glyph-name="circumflex" unicode="&#x2c6;" horiz-adv-x="683" 
d="M351 1154l-168 -201l-83 36l227 274l178 4l202 -243l-143 -71z" />
    <glyph glyph-name="tilde" unicode="&#x2dc;" horiz-adv-x="683" 
d="M640 1237l105 -42q-37 -76 -102 -161q-68 -86 -106 -86q-14 0 -149 47l-196 75q-9 -7 -91 -121l-75 31q136 216 196 257q35 -7 119 -35q60 -20 83 -26q55 -16 89 -28q28 -11 43 -11q20 0 42 37q6 11 42 63z" />
    <glyph glyph-name="macron" unicode="&#x2c9;" horiz-adv-x="683" 
d="M81 1038v162h616v-162h-616z" />
    <glyph glyph-name="breve" unicode="&#x2d8;" horiz-adv-x="683" 
d="M106 1219l132 22q46 -142 175 -142q115 0 240 134l102 -32q-188 -248 -383 -248q-109 0 -174 59q-67 59 -92 207z" />
    <glyph glyph-name="dotaccent" unicode="&#x2d9;" horiz-adv-x="683" 
d="M222 990q41 94 80 256q101 -11 159 -34q59 -24 59 -79q0 -50 -40 -117q-41 -68 -93 -68q-49 0 -165 42z" />
    <glyph glyph-name="ring" unicode="&#x2da;" horiz-adv-x="683" 
d="M416 1036q23 48 23 96q0 111 -115 132q-42 -54 -42 -111q0 -48 41 -83q40 -34 93 -34zM570 1172q0 -64 -20 -106q-20 -39 -89 -76q-67 -37 -130 -37q-68 0 -126 46q-59 45 -59 117q0 69 66 144t138 75q75 0 148 -38q72 -37 72 -125z" />
    <glyph glyph-name="cedilla" unicode="&#xb8;" horiz-adv-x="683" 
d="M55 -415l22 121q193 0 193 75q0 45 -107 95q7 4 91 49q73 37 85 45q100 -11 145 -65q46 -55 46 -116q0 -88 -88 -152t-249 -64q-55 0 -138 12z" />
    <glyph glyph-name="hungarumlaut" unicode="&#x2dd;" horiz-adv-x="683" 
d="M889 1270l-353 -324l-86 39l161 273zM551 1270l-353 -324l-86 39l161 273z" />
    <glyph glyph-name="ogonek" unicode="&#x2db;" horiz-adv-x="683" 
d="M238 12l250 -12q-99 -138 -99 -226q0 -78 77 -128t171 -50l30 -76q-43 -3 -69 -3q-163 0 -300 81q-136 81 -136 206q0 80 76 208z" />
    <glyph glyph-name="caron" unicode="&#x2c7;" horiz-adv-x="683" 
d="M444 1067l168 200l83 -36l-227 -274l-178 -4l-202 243l143 71z" />
    <glyph glyph-name="Scaron" unicode="&#x160;" horiz-adv-x="1813" 
d="M1320 1321h160q169 -121 169 -356q0 -77 -27 -151q-148 152 -246 182q-100 30 -171 30q-50 0 -62 -5q-11 -6 -15 -43q-6 -37 -6 -67q0 -44 19 -110q18 -69 67 -88q45 -20 112 -40q65 -20 202 -36q89 -10 122 -22q27 -10 57 -45q30 -36 86 -135q-151 -570 -915 -866
l-103 -6q-157 0 -321 111q-166 111 -418 387l12 184q360 -116 809 -377q110 -65 127 -65q111 0 266 98q153 97 153 237q0 62 -41 91q-40 26 -162 46q-193 30 -286 139q-93 108 -93 227q0 143 142 387q140 243 363 293zM1372 1518l168 200l83 -36l-227 -274l-178 -4l-202 243
l143 71z" />
    <glyph glyph-name="scaron" unicode="&#x161;" horiz-adv-x="1045" 
d="M360 849q6 0 172 -12q178 -11 347 -11q-1 -4 -22 -75q-35 -116 -36 -172q-117 46 -455 75q48 -142 314 -142q140 0 192 -12q50 -12 79 -50q28 -37 28 -107q0 -75 -32 -147q-34 -72 -79 -116q-46 -45 -162 -81q-115 -36 -242 -36q-220 0 -367 90q18 60 55 147
q156 -68 353 -68q104 0 192 58q-61 43 -133 43q-15 0 -36 -1q-50 -2 -57 -2q-197 0 -300 59q-103 58 -103 202q0 114 62 191q61 76 230 167zM565 1067l168 200l83 -36l-227 -274l-178 -4l-202 243l143 71z" />
    <glyph glyph-name="brokenbar" unicode="&#xa6;" horiz-adv-x="1259" 
d="M504 -568v734h250v-734h-250zM504 551v733h250v-733h-250z" />
    <glyph glyph-name="Eth" unicode="&#xd0;" horiz-adv-x="2560" 
d="M1396 359l316 -12l94 -80q-72 7 -152.5 10.5t-172.5 3.5q-44 0 -154 -2q-158 -179 -415 -367q276 -89 487 -89q209 0 425 66q217 66 309 181q93 116 93 218q0 110 -117 282q-118 173 -351 288q-41 -73 -92 -148.5t-118.5 -163t-151.5 -187.5zM1209 366l481 519
q-211 106 -415 106q-56 0 -158 -9q-30 -33 -438 -622l-79 -10q130 333 221 506q42 54 93 108.5t125 123.5q163 152 218 215q158 21 243 21q306 0 667 -215q359 -216 359 -513q0 -412 -479 -732q-480 -321 -1073 -321q-256 0 -445 60q-190 58 -300 155q-110 95 -205 256
q188 153 253 197q259 -169 443 -169q98 0 189 50q90 50 212 180l-193 -10l-94 118q29 -1 54.5 -2t111 -4t209.5 -8z" />
    <glyph glyph-name="eth" unicode="&#xf0;" horiz-adv-x="1045" 
d="M577 782q-86 -33 -141 -124q-56 -92 -56 -191q0 -102 60 -189q59 -87 206 -119q28 85 28 191q0 204 -97 432zM691 1133l232 41l43 -83l-216 -36q229 -316 229 -605q0 -109 -38 -197q-37 -86 -88 -133q-47 -43 -139 -91q-71 -36 -134 -82q-174 0 -299 72q-124 72 -172 147
q-48 74 -48 154q0 113 69 231q68 119 159 183q90 65 252 126q0 1 -41 72l-42 72l-265 -46l-41 83l250 43q-52 67 -120 142l265 75q120 -127 144 -168z" />
    <glyph glyph-name="Yacute" unicode="&#xdd;" horiz-adv-x="2304" 
d="M1411 -177l-134 -213q-358 -165 -591 -165q-122 0 -209 37q-89 38 -89 108q0 48 27 95q23 42 91 118q75 84 138.5 159.5t115.5 142.5q-87 690 -192 978q-113 -21 -254 -78t-297 -146l26 123q86 57 210.5 131.5t208.5 117.5q181 94 328 94q133 0 235 -50q56 -127 93 -315
q36 -187 36 -231q0 -20 -29 -168l-66 -324q168 123 262 201q101 83 135 117q30 29 200 217q117 129 205 202q94 76 233 161q171 107 282 189l115 -96q-179 -143 -318.5 -267t-242.5 -230q-213 -217 -433 -375q-222 -158 -376 -232q-160 -77 -233 -132q-74 -55 -172 -177
q54 -15 265 -15q113 0 430 23zM1869 1721l-353 -324l-86 39l161 273z" />
    <glyph glyph-name="yacute" unicode="&#xfd;" 
d="M83 570v207q220 7 365 61l-14 -223l-13 -258q94 153 125 232q33 83 57 231q122 -10 348 -27q-18 -82 -52 -396l-31 -327q-14 -141 -31 -202q-21 -67 -83 -158q-67 -98 -191 -228q-315 29 -484 148l-57 137q45 73 123 174q54 -66 157 -91q104 -26 249 -48q-20 232 -20 365
q0 82 6 194l-226 -291q-37 -46 -45 -90q-80 10 -151 42q-9 77 -15 162q-6 63 -11 189q-5 104 -6 197zM796 1270l-353 -324l-86 39l161 273z" />
    <glyph glyph-name="Thorn" unicode="&#xde;" horiz-adv-x="1685" 
d="M1286 141q1 37 1 86q0 448 -165 671q-120 -120 -240 -312q-122 -193 -174 -310l340 -77q44 -10 121.5 -29.5t116.5 -28.5zM136 809l73 232q144 63 241.5 104t218.5 88.5t194 72.5t141 45l-154 -533q280 297 590 405l144 -87q90 -159 90 -403q0 -247 -119 -479
q-118 -231 -432 -509q-35 -5 -48 -5q-94 0 -219 108q-48 40 -102 63t-154 36l-78 -325q-199 -72 -348 -132q-90 -36 -114 -43q42 280 237 820q194 539 279 684q-26 -5 -327 -106q-73 -25 -113 -36z" />
    <glyph glyph-name="thorn" unicode="&#xfe;" 
d="M392 520q11 -99 11 -192q0 -37 -1 -52q34 -15 189 -58q3 51 3 97q0 248 -79 321q-118 -112 -123 -116zM92 442l-32 740q73 23 332 110v-624q125 71 243 188q181 -55 240 -133q59 -77 59 -221q0 -291 -281 -522l-206 90q-48 -189 -77.5 -331t-47.5 -270l-262 22
q39 403 39 675q0 126 -7 276z" />
    <glyph glyph-name="multiply" unicode="&#xd7;" horiz-adv-x="1365" 
d="M510 582l-362 362l175 174l361 -361l361 361l175 -175l-360 -361l358 -357l-174 -174l-359 357l-358 -357l-175 174z" />
    <glyph glyph-name="onesuperior" unicode="&#xb9;" horiz-adv-x="789" 
d="M178 877l11 162q139 60 234 106q62 30 137 62q1 -15 1 -32q0 -16 -10 -89q-6 -43 -12 -135l-8 -113q-15 -199 -37 -231q-22 -33 -225 -63q28 52 31 121l4 129q2 50 3 152l-58 -32q-33 -19 -50 -27l-6.5 -3t-14.5 -7z" />
    <glyph glyph-name="twosuperior" unicode="&#xb2;" horiz-adv-x="789" 
d="M111 981l185 206q42 5 61 5q93 0 172 -53q78 -54 78 -147q0 -64 -48 -130t-94 -100l-42 -32q94 -13 196 -15l47 -1l-28 -57q-56 -116 -155 -116q-31 0 -114 15q-142 26 -260 34q64 63 94 90q75 63 117 112q43 50 43 108q0 103 -130 103q-44 0 -122 -22z" />
    <glyph glyph-name="threesuperior" unicode="&#xb3;" horiz-adv-x="789" 
d="M217 1183q71 6 168 6q65 0 89 -1q92 -2 78 -2q17 1 47 1.5t54 0.5l-206 -293q91 -8 139 -20q30 -31 30 -114q0 -120 -76 -187q-77 -68 -191 -68q-92 0 -198 23v25q139 10 181 45q42 33 42 82q0 44 -35 62q-37 18 -126 19q26 38 50 62q82 85 131 177q-33 1 -75 1
q-36 0 -61 -1q-33 -1 -65 -1q-17 0 -41 1q50 127 65 182z" />
    <glyph glyph-name="onehalf" unicode="&#xbd;" horiz-adv-x="1685" 
d="M1006 372l186 206q42 5 61 5q98 0 175 -56q75 -55 75 -144q0 -64 -48 -130q-50 -67 -95 -100l-42 -32q94 -13 196 -15l47 -1l-28 -57q-56 -116 -155 -116q-31 0 -114 15q-142 26 -260 34q64 63 94 90q75 63 117 112q44 52 44 108q0 103 -131 103q-44 0 -122 -22zM180 877
l11 162q139 60 234 106q62 30 137 62q1 -15 1 -32q0 -16 -10 -89q-6 -43 -12 -135l-8 -113q-15 -199 -37 -231q-22 -33 -225 -63q28 52 31 121l4 129q2 50 3 152l-58 -32q-33 -19 -50 -27l-6.5 -3t-14.5 -7zM396 -98l714 1320l156 30q-17 -56 -65 -160q-49 -103 -73 -138
l-631 -968q-92 -73 -101 -84z" />
    <glyph glyph-name="onequarter" unicode="&#xbc;" horiz-adv-x="1685" 
d="M1290 376q-22 -27 -153 -147q86 0 137 3q0 45 16 144zM1339 609q38 4 115 15l83 12q1 -22 1 -57q0 -33 -6 -107l-12 -140q-6 -70 -9 -93q124 5 141 7q-50 -98 -70 -121q-20 -25 -33 -31q-14 -6 -53 -12q-3 -60 -13 -103q-136 -39 -267 -60q29 68 36 82q12 28 13 71h-138
l-209 -3l14 27q7 9 169 213l135 168q68 88 103 132zM180 877l11 162q139 60 234 106q62 30 137 62q1 -15 1 -32q0 -16 -10 -89q-6 -43 -12 -135l-8 -113q-15 -199 -37 -231q-22 -33 -225 -63q28 52 31 121l4 129q2 50 3 152l-58 -32q-33 -19 -50 -27l-6.5 -3t-14.5 -7z
M429 -98l713 1320l156 30q-19 -68 -67 -164t-69 -130l-632 -972q-94 -74 -101 -84z" />
    <glyph glyph-name="threequarters" unicode="&#xbe;" horiz-adv-x="1685" 
d="M1290 376q-16 -22 -153 -147q88 0 137 3q0 45 16 144zM1236 477l103 132l16 2q41 5 99 13l83 12q1 -22 1 -57q0 -33 -6 -107l-12 -140q-6 -70 -9 -93q124 5 141 7q-49 -97 -71 -122q-21 -26 -34 -30q-13 -6 -51 -12q-3 -60 -13 -103q-138 -41 -267 -60q23 54 36 81
q11 24 13 72h-21h-86h-31l-209 -3q6 23 115 153l68 87zM219 1183q71 6 168 6q65 0 89 -1q92 -2 78 -2q17 1 47 1.5t54 0.5l-206 -293q91 -8 139 -20q30 -31 30 -114q0 -120 -76 -187q-77 -68 -191 -68q-92 0 -198 23v25q139 10 181 45q42 33 42 82q0 44 -35 62
q-37 18 -126 19q26 38 50 62q82 85 131 177q-33 1 -75 1q-36 0 -61 -1q-33 -1 -65 -1q-17 0 -41 1q50 127 65 182zM473 -98l713 1320l156 30q-17 -57 -63 -155q-46 -99 -72 -139l-633 -972q-94 -74 -101 -84z" />
    <glyph glyph-name="macron" unicode="&#xaf;" horiz-adv-x="1024" 
d="M-12 1475v102h1048v-102h-1048z" />
    <glyph glyph-name="sfthyphen" unicode="&#xad;" horiz-adv-x="725" 
d="M31 410v84l660 9v-115z" />
    </font>
</defs>
</svg>
